<svg width="26" height="30" viewBox="0 0 26 30" fill="none" xmlns="http://www.w3.org/2000/svg">
<g clip-path="url(#clip0)">
<path d="M24.7819 23.3796C24.3275 24.4277 23.7896 25.3925 23.1663 26.2795C22.3167 27.4888 21.6211 28.3258 21.0851 28.7906C20.254 29.5535 19.3637 29.9442 18.4102 29.9665C17.7258 29.9665 16.9003 29.772 15.9395 29.3776C14.9755 28.985 14.0895 28.7906 13.2795 28.7906C12.4299 28.7906 11.5188 28.985 10.5442 29.3776C9.56813 29.772 8.78182 29.9776 8.18064 29.9979C7.26634 30.0368 6.35501 29.635 5.44535 28.7906C4.86475 28.285 4.13855 27.4184 3.26858 26.1906C2.33518 24.8796 1.56779 23.3592 0.966607 21.626C0.322759 19.7538 0 17.9409 0 16.1858C0 14.1753 0.435168 12.4412 1.3068 10.9881C1.99183 9.82094 2.90316 8.90023 4.04376 8.22432C5.18436 7.54842 6.41678 7.20398 7.74399 7.18195C8.47019 7.18195 9.42252 7.4062 10.606 7.84693C11.7861 8.28914 12.5438 8.51339 12.876 8.51339C13.1244 8.51339 13.9662 8.25117 15.3932 7.72841C16.7427 7.24361 17.8816 7.04288 18.8146 7.12195C21.3429 7.32565 23.2423 8.32062 24.5056 10.1132C22.2444 11.4809 21.1259 13.3966 21.1481 15.8541C21.1685 17.7683 21.8641 19.3612 23.2312 20.626C23.8508 21.213 24.5427 21.6667 25.3125 21.9889C25.1455 22.4722 24.9693 22.9352 24.7819 23.3796ZM18.9834 0.60066C18.9834 2.101 18.4344 3.50187 17.3399 4.7985C16.0192 6.33993 14.4218 7.23065 12.6894 7.0901C12.6674 6.9101 12.6546 6.72066 12.6546 6.5216C12.6546 5.08127 13.2826 3.53983 14.398 2.2795C14.9549 1.64137 15.6631 1.11077 16.5219 0.687508C17.3789 0.270557 18.1895 0.0399746 18.9519 0.000488281C18.9741 0.201061 18.9834 0.401646 18.9834 0.60064V0.60066Z" fill="black"/>
</g>
<defs>
<clipPath id="clip0">
<rect width="25.3125" height="30" fill="white"/>
</clipPath>
</defs>
</svg>
