<svg width="20" height="20" viewBox="0 0 20 20" fill="none" xmlns="http://www.w3.org/2000/svg">
<path fill-rule="evenodd" clip-rule="evenodd" d="M7.83243 4.09572C8.10728 4.37057 8.10728 4.81619 7.83243 5.09104L5.51491 7.40857H13.1997C15.316 7.40857 17.0315 9.12411 17.0315 11.2403C17.0315 13.3566 15.316 15.0721 13.1997 15.0721H11.6357C11.2471 15.0721 10.932 14.757 10.932 14.3683C10.932 13.9796 11.2471 13.6645 11.6357 13.6645H13.1997C14.5386 13.6645 15.6239 12.5792 15.6239 11.2403C15.6239 9.9015 14.5386 8.81616 13.1997 8.81616H5.51491L7.83243 11.1337C8.10728 11.4085 8.10728 11.8541 7.83243 12.129C7.55758 12.4038 7.11196 12.4038 6.83711 12.129L3.31814 8.61002C3.04329 8.33517 3.04329 7.88955 3.31814 7.6147L6.83711 4.09572C7.11196 3.82088 7.55758 3.82088 7.83243 4.09572Z" fill="#5A5A5A"/>
</svg>
