<svg width="48" height="51" viewBox="0 0 48 51" fill="none" xmlns="http://www.w3.org/2000/svg">
<path d="M46.9111 35.8742C46.6558 35.2771 46.4004 34.6301 46.145 34.0827C45.7364 33.187 45.3278 32.341 44.9702 31.5448L44.9192 31.4951C41.3949 24.0306 37.6152 16.4666 33.6313 9.00219L33.4781 8.70361C33.0694 7.95717 32.6608 7.16096 32.2522 6.36475C31.7415 5.46902 31.2307 4.52352 30.4135 3.62779C28.779 1.63727 26.4295 0.54248 23.9268 0.54248C21.373 0.54248 19.0745 1.63727 17.389 3.52826C16.6229 4.42399 16.061 5.36949 15.5502 6.26522C15.1416 7.06143 14.733 7.85764 14.3244 8.60409L14.1712 8.90266C10.2383 16.3671 6.40757 23.9311 2.8833 31.3955L2.83223 31.4951C2.47469 32.2913 2.06608 33.1372 1.65747 34.033C1.40209 34.5804 1.1467 35.1775 0.891323 35.8244C0.22733 37.6657 0.0230243 39.4074 0.278406 41.1988C0.840246 44.9311 3.39407 48.0661 6.91834 49.4595C8.24632 50.0069 9.62539 50.2557 11.0555 50.2557C11.4641 50.2557 11.9749 50.206 12.3835 50.1562C14.069 49.9571 15.8056 49.4097 17.4911 48.4642C19.5853 47.3197 21.5773 45.6775 23.8246 43.2889C26.072 45.6775 28.115 47.3197 30.1581 48.4642C31.8436 49.4097 33.5802 49.9571 35.2657 50.1562C35.6743 50.206 36.1851 50.2557 36.5937 50.2557C38.0239 50.2557 39.454 50.0069 40.7309 49.4595C44.3063 48.0661 46.809 44.8813 47.3708 41.1988C47.7794 39.4571 47.5751 37.7154 46.9111 35.8742ZM23.8757 38.4619C21.1176 35.078 19.3299 31.8932 18.717 29.206C18.4616 28.0614 18.4105 27.0662 18.5638 26.1704C18.6659 25.3742 18.9724 24.6775 19.381 24.0804C20.3514 22.7368 21.9859 21.8908 23.8757 21.8908C25.7655 21.8908 27.451 22.687 28.3704 24.0804C28.779 24.6775 29.0855 25.3742 29.1876 26.1704C29.3409 27.0662 29.2898 28.1112 29.0344 29.206C28.4215 31.8434 26.6338 35.0282 23.8757 38.4619ZM44.2552 40.8007C43.8976 43.3884 42.11 45.6278 39.6072 46.623C38.3814 47.1206 37.0534 47.2699 35.7254 47.1206C34.4485 46.9714 33.1716 46.5733 31.8436 45.8268C30.0049 44.8315 28.1661 43.2889 26.0209 40.9998C29.3919 36.969 31.435 33.2865 32.2011 30.0022C32.5587 28.4595 32.6098 27.0662 32.4565 25.7723C32.2522 24.5282 31.7925 23.3837 31.0775 22.3884C29.4941 20.1491 26.8381 18.8553 23.8757 18.8553C20.9133 18.8553 18.2573 20.1989 16.6739 22.3884C15.9589 23.3837 15.4992 24.5282 15.2949 25.7723C15.0906 27.0662 15.1416 28.5093 15.5502 30.0022C16.3164 33.2865 18.4105 37.0188 21.7305 41.0496C19.6364 43.3387 17.7465 44.8813 15.9078 45.8766C14.5798 46.623 13.3029 47.0211 12.026 47.1704C10.6469 47.3197 9.31893 47.1206 8.14417 46.6728C5.64143 45.6775 3.85375 43.4382 3.49622 40.8505C3.34299 39.6064 3.44514 38.3624 3.95591 36.969C4.10914 36.4714 4.36452 35.9737 4.6199 35.3766C4.97743 34.5804 5.38604 33.7344 5.79466 32.8884L5.84573 32.7889C9.37 25.3742 13.1497 17.8102 17.0825 10.4453L17.2358 10.1467C17.6444 9.40029 18.053 8.60409 18.4616 7.85764C18.8702 7.06143 19.3299 6.31499 19.8917 5.66807C20.9643 4.47376 22.3945 3.82684 23.9778 3.82684C25.5612 3.82684 26.9914 4.47376 28.064 5.66807C28.6258 6.31499 29.0855 7.06143 29.4941 7.85764C29.9027 8.60409 30.3113 9.40029 30.7199 10.1467L30.8732 10.4453C34.755 17.86 38.5346 25.424 42.0589 32.8387V32.8884C42.4675 33.6846 42.825 34.5804 43.2337 35.3766C43.489 35.9737 43.7444 36.4714 43.8976 36.969C44.3063 38.2628 44.4595 39.5069 44.2552 40.8007Z" fill="white"/>
</svg>
