<svg width="43" height="41" viewBox="0 0 43 41" fill="none" xmlns="http://www.w3.org/2000/svg">
<path d="M36.9067 36.4088C35.9809 36.4088 35.1097 36.1322 34.2493 35.5572C29.4922 32.3901 31.1171 28.5913 34.3647 22.7124C35.737 20.2184 37.1572 17.6504 37.7888 14.9973C38.4662 12.1439 39.0827 7.9836 36.6083 4.83831C35.4451 3.36368 33.6743 2.2245 31.3523 1.45342C28.9302 0.654031 25.8197 0.220573 22.0951 0.170475L21.838 0.16394L20.8927 0.170475C17.1702 0.220573 14.0554 0.654031 11.6398 1.45342C9.31352 2.2245 7.54484 3.36151 6.37951 4.83831C3.9051 7.98578 4.52153 12.1439 5.2033 14.9973C5.83061 17.6504 7.25296 20.225 8.62303 22.7103C11.8707 28.5913 13.4978 32.3901 8.7363 35.5572C7.8781 36.1322 7.01118 36.4067 6.08328 36.4067C4.23183 36.4067 2.09721 35.4809 0.960205 34.9146L1.23683 35.4003C3.58927 38.9312 6.61258 40.8088 9.97133 40.8088C11.4438 40.8088 12.999 40.4515 14.5891 39.7458C16.2772 38.9987 17.7583 37.6308 18.7646 35.8926C19.7666 34.1544 20.1652 32.2834 19.8799 30.6192C19.5357 29.1272 18.7559 27.1211 17.8607 24.797C15.5148 18.7351 12.3107 10.4471 15.077 6.39353C16.2445 4.68366 18.3442 3.84724 21.4917 3.83635C24.6435 3.84724 26.7411 4.68366 27.9086 6.39353C30.6793 10.4471 27.473 18.7351 25.1314 24.7882C24.2319 27.1145 23.4542 29.1228 23.1101 30.604C22.8226 32.2834 23.219 34.1544 24.2253 35.8926C25.2316 37.6308 26.7128 38.9987 28.4009 39.748C29.991 40.4515 31.5462 40.8088 33.0186 40.8088C36.3774 40.8088 39.4007 38.9312 41.764 35.3851L42.0297 34.9146C40.8971 35.4809 38.7625 36.4088 36.9067 36.4088Z" fill="white"/>
</svg>
