<svg width="16" height="16" viewBox="0 0 16 16" fill="none" xmlns="http://www.w3.org/2000/svg">
<path d="M8.00184 15.6541C3.68288 15.6541 0.181885 12.1531 0.181885 7.83414C0.181885 3.51518 3.68288 0.0141907 8.00184 0.0141907C12.3208 0.0141907 15.8218 3.51518 15.8218 7.83414C15.8218 12.1531 12.3208 15.6541 8.00184 15.6541ZM8.00184 14.0901C9.66102 14.0901 11.2523 13.431 12.4255 12.2578C13.5987 11.0846 14.2578 9.49333 14.2578 7.83414C14.2578 6.17496 13.5987 4.58373 12.4255 3.41051C11.2523 2.23729 9.66102 1.57818 8.00184 1.57818C6.34265 1.57818 4.75143 2.23729 3.5782 3.41051C2.40498 4.58373 1.74588 6.17496 1.74588 7.83414C1.74588 9.49333 2.40498 11.0846 3.5782 12.2578C4.75143 13.431 6.34265 14.0901 8.00184 14.0901ZM8.78383 7.83414H11.9118V9.39814H7.21984V3.92417H8.78383V7.83414Z" fill="#FF2D55"/>
</svg>
