<svg width="66" height="65" viewBox="0 0 66 65" fill="none" xmlns="http://www.w3.org/2000/svg">
<path d="M32.9652 64.6133C24.3856 64.4792 13.7951 63.6749 7.89664 57.6424C1.73004 51.7439 0.791649 41.1534 0.657593 32.5738C0.791649 23.9942 1.59599 13.4038 7.62852 7.5053C13.527 1.33871 24.1175 0.400315 32.6971 0.266258C41.2767 0.400315 51.8671 1.20465 57.7656 7.23719C63.9322 13.1357 64.8706 23.7261 65.0046 32.1717C64.8706 40.7513 64.0662 51.3417 58.0337 57.2402C52.1352 63.5409 41.5448 64.4792 32.9652 64.6133Z" fill="#FECC00"/>
<mask id="mask0" mask-type="alpha" maskUnits="userSpaceOnUse" x="0" y="0" width="66" height="65">
<path d="M32.9665 64.6133C24.3868 64.4792 13.7964 63.6749 7.89792 57.6424C1.73133 51.7439 0.792931 41.1534 0.658875 32.5738C0.792931 23.9942 1.59727 13.4038 7.6298 7.5053C13.5283 1.33871 24.1187 0.400313 32.6983 0.266256C41.2779 0.400313 51.8684 1.20465 57.7669 7.23719C63.9335 13.1357 64.8719 23.7261 65.0059 32.1717C64.8719 40.7513 64.0675 51.3417 58.035 57.2402C52.1365 63.5408 41.5461 64.4792 32.9665 64.6133Z" fill="#FECC00"/>
</mask>
<g mask="url(#mask0)">
</g>
<g clip-path="url(#clip0)">
<path d="M21.4061 31.0548C21.1249 31.4328 20.6545 32.0899 20.3682 32.4737C20.2228 32.6688 19.9603 33.0232 20.8306 33.0232C21.7514 33.0232 25.4127 33.0232 25.4127 33.0232C25.4127 33.0232 26.1512 32.0259 26.7703 31.1918C27.6124 30.0571 26.8432 27.6962 23.8325 27.6962C21.1378 27.6962 11.9757 27.6962 11.9757 27.6962L9.91983 30.4689C9.91983 30.4689 20.5776 30.4689 21.1246 30.4689C21.6903 30.4689 21.6826 30.6826 21.4061 31.0548ZM18.0399 33.7072C17.1696 33.7072 17.4321 33.3521 17.5775 33.157C17.8638 32.7732 18.342 32.1229 18.6232 31.745C18.9 31.3728 18.9073 31.1591 18.3409 31.1591C17.7942 31.1591 13.2165 31.1591 13.2165 31.1591L9.08761 36.7293C9.08761 36.7293 16.4619 36.7293 19.1566 36.7293C22.4822 36.7293 24.3337 34.4839 24.9045 33.7076C24.9045 33.7072 18.9604 33.7072 18.0399 33.7072ZM24.59 36.7293H30.4968L32.7361 33.7069L26.83 33.7076C26.8282 33.7072 24.59 36.7293 24.59 36.7293ZM39.8303 27.6962L37.5647 30.7509H34.9285L37.193 27.6962H31.288L27.3375 33.0232H41.7851L45.7345 27.6962H39.8303ZM33.133 36.7293H39.0376L41.278 33.7076H35.3734C35.3712 33.7072 33.133 36.7293 33.133 36.7293ZM0.659241 34.8993V35.5412H8.8855L9.36074 34.8993H0.659241ZM10.245 33.7072H0.659241V34.3483H9.76862L10.245 33.7072ZM0.659241 36.7293H8.00422L8.47727 36.0911H0.659241V36.7293ZM56.3377 35.5408H65.0063V34.899H56.8137L56.3377 35.5408ZM55.4572 36.7293H65.0063V36.0911H55.9299L55.4572 36.7293ZM57.6965 33.7072L57.2216 34.3491H65.0063V33.7072H57.6965ZM49.9623 33.0232L53.9125 27.6962H47.6586C47.6564 27.6962 43.7054 33.0232 43.7054 33.0232H49.9623ZM43.1991 33.7072C43.1991 33.7072 42.7674 34.2927 42.5576 34.5748C41.8162 35.5692 42.4719 36.7293 44.8921 36.7293C47.6879 36.7293 54.3753 36.7293 54.3753 36.7293L56.6156 33.7076H43.1991V33.7072Z" fill="#D50029"/>
</g>
<defs>
<clipPath id="clip0">
<rect width="64.347" height="14.0967" fill="white" transform="translate(0.658325 25.0356)"/>
</clipPath>
</defs>
</svg>
