<svg width="384" height="401" viewBox="0 0 384 401" fill="none" xmlns="http://www.w3.org/2000/svg">
<path d="M164.146 352C154.813 351.854 143.292 350.979 136.875 344.417C130.167 338 129.146 326.479 129 317.146C129.146 307.813 130.021 296.292 136.583 289.875C143 283.167 154.521 282.146 163.854 282C173.188 282.146 184.708 283.021 191.125 289.583C197.833 296 198.854 307.521 199 316.708C198.854 326.042 197.979 337.562 191.417 343.979C185 350.833 173.479 351.854 164.146 352Z" fill="#01123F"/>
<mask id="mask0" mask-type="alpha" maskUnits="userSpaceOnUse" x="129" y="282" width="70" height="70">
<path d="M164.146 352C154.813 351.854 143.292 350.979 136.875 344.417C130.167 338 129.146 326.479 129 317.146C129.146 307.813 130.021 296.292 136.583 289.875C143 283.167 154.521 282.146 163.854 282C173.188 282.146 184.708 283.021 191.125 289.583C197.833 296 198.854 307.521 199 316.708C198.854 326.042 197.979 337.562 191.417 343.979C185 350.833 173.479 351.854 164.146 352Z" fill="#F74656"/>
</mask>
<g mask="url(#mask0)">
</g>
<g clip-path="url(#clip0)">
<path d="M179.599 302.234H174.255V302.703H175.67V330.281C175.67 330.906 175.434 331.062 174.57 331.141H174.255V331.609H180.306V331.062H179.678C178.656 331.062 178.263 330.594 178.263 329.734V318.641H179.992C182.585 318.641 184 317.391 184 315.75V305.281C184.079 303.719 182.821 302.234 179.599 302.234ZM181.485 316.375C181.51 316.607 181.482 316.841 181.404 317.061C181.326 317.28 181.199 317.48 181.034 317.645C180.868 317.81 180.667 317.935 180.446 318.013C180.225 318.091 179.989 318.118 179.756 318.094H178.263V302.703H179.599C180.098 302.707 180.576 302.906 180.928 303.257C181.281 303.608 181.481 304.082 181.485 304.578V316.375ZM168.126 329.734L164.668 302.234H162.389L159.088 329.5C158.931 330.516 158.774 331.062 157.202 331.141V331.609H161.21V331.062C160.031 331.062 159.56 330.437 159.639 329.734L160.974 318.641H164.118L165.532 330.047C165.532 330.75 165.454 330.984 164.589 331.062H164.196V331.531H169.619V331.062H169.462C169.286 331.064 169.112 331.03 168.949 330.964C168.787 330.897 168.639 330.799 168.515 330.676C168.39 330.552 168.292 330.405 168.225 330.244C168.159 330.082 168.125 329.909 168.126 329.734ZM161.132 318.172L162.546 306.375L164.118 318.172H161.132ZM151.23 302.625C151.23 303.094 150.916 303.094 150.68 302.937C149.812 302.372 148.808 302.048 147.772 302C146.2 302 144 302.703 144 305.672V327.469C144 331.297 146.043 332 148.008 332C149.58 332 150.287 331.297 150.916 331.062C151.23 330.906 151.623 331.219 151.623 331.766H152.251V318.719H153.509V318.172H148.008V318.719H149.58V329.812C149.586 330.033 149.548 330.253 149.468 330.459C149.389 330.666 149.268 330.854 149.115 331.014C148.962 331.174 148.778 331.302 148.574 331.391C148.371 331.479 148.151 331.527 147.929 331.531C147.493 331.507 147.084 331.313 146.79 330.992C146.496 330.67 146.34 330.247 146.358 329.812V304.812C146.358 304.109 146.515 302.547 147.694 302.547C148.637 302.547 149.344 303.406 149.658 304.734C149.997 306.775 150.181 308.838 150.208 310.906C150.208 311.375 150.365 311.531 150.916 311.531H151.937V302.234H151.23V302.625Z" fill="white"/>
</g>
<path d="M131.656 75C121.656 74.8438 109.312 73.9062 102.438 66.875C95.25 60 94.1562 47.6562 94 37.6562C94.1562 27.6562 95.0937 15.3125 102.125 8.4375C109 1.25 121.344 0.15625 131.344 0C141.344 0.15625 153.687 1.09375 160.562 8.125C167.75 15 168.844 27.3437 169 37.1875C168.844 47.1875 167.906 59.5312 160.875 66.4062C154 73.75 141.656 74.8438 131.656 75Z" fill="#E81C19"/>
<mask id="mask1" mask-type="alpha" maskUnits="userSpaceOnUse" x="94" y="0" width="75" height="75">
<path d="M131.656 75C121.656 74.8438 109.312 73.9062 102.438 66.875C95.25 60 94.1562 47.6562 94 37.6562C94.1562 27.6562 95.0937 15.3125 102.125 8.4375C109 1.25 121.344 0.15625 131.344 0C141.344 0.15625 153.687 1.09375 160.562 8.125C167.75 15 168.844 27.3437 169 37.1875C168.844 47.1875 167.906 59.5312 160.875 66.4062C154 73.75 141.656 74.8438 131.656 75Z" fill="#FECC00"/>
</mask>
<g mask="url(#mask1)">
</g>
<path d="M107.452 46.7816V50.318H108.339C108.566 50.3122 108.789 50.2607 108.996 50.1667C109.202 50.0727 109.387 49.9381 109.54 49.7709C109.852 49.4312 110.025 48.9872 110.025 48.5264C110.025 48.0657 109.852 47.6217 109.54 47.282C109.388 47.1148 109.202 46.9806 108.996 46.8877C108.789 46.7947 108.566 46.745 108.339 46.7415H107.452V46.7816ZM108.339 45.6672C108.734 45.6237 109.133 45.6621 109.513 45.7801C109.892 45.8982 110.242 46.0933 110.542 46.3531C110.843 46.613 111.086 46.9321 111.257 47.2904C111.428 47.6488 111.523 48.0385 111.537 48.4354C111.55 48.8322 111.481 49.2275 111.335 49.5965C111.188 49.9655 110.967 50.3003 110.685 50.5798C110.403 50.8593 110.066 51.0775 109.696 51.2208C109.325 51.364 108.93 51.4293 108.533 51.4123H106.391C106.354 51.4123 106.318 51.3976 106.292 51.3713C106.266 51.345 106.251 51.3094 106.251 51.2722V45.8007C106.252 45.7641 106.268 45.7294 106.294 45.7034C106.32 45.6775 106.354 45.6622 106.391 45.6606H108.339V45.6672ZM115.499 50.4382C115.869 50.4393 116.231 50.3292 116.538 50.1222C116.845 49.9152 117.083 49.6208 117.221 49.2771C117.362 48.9318 117.399 48.5527 117.328 48.1864C117.257 47.8201 117.081 47.4826 116.82 47.2153C116.567 46.9532 116.24 46.7736 115.883 46.6998C115.526 46.626 115.155 46.6615 114.818 46.8016C114.421 46.9718 114.093 47.2731 113.89 47.6552C113.688 48.0373 113.622 48.4774 113.703 48.9022C113.785 49.327 114.01 49.711 114.34 49.9904C114.671 50.2698 115.087 50.4278 115.519 50.4382H115.499ZM115.519 45.5405C116.112 45.5497 116.69 45.7341 117.179 46.0707C117.668 46.4072 118.046 46.8807 118.266 47.4317C118.487 47.9827 118.539 48.5866 118.418 49.1675C118.296 49.7483 118.005 50.2801 117.581 50.696C117.158 51.112 116.621 51.3934 116.038 51.5051C115.456 51.6167 114.853 51.5535 114.306 51.3234C113.759 51.0933 113.292 50.7066 112.964 50.2119C112.636 49.7172 112.462 49.1366 112.463 48.5431C112.463 48.1443 112.542 47.7494 112.697 47.3816C112.851 47.0138 113.077 46.6804 113.361 46.4008C113.646 46.1213 113.983 45.9012 114.354 45.7535C114.724 45.6058 115.12 45.5334 115.519 45.5405ZM122.819 50.4382C123.194 50.4447 123.562 50.34 123.877 50.1372C124.192 49.9345 124.44 49.6429 124.59 49.2992C124.739 48.9555 124.783 48.5752 124.717 48.2064C124.65 47.8376 124.476 47.4969 124.215 47.2272C123.955 46.9576 123.621 46.7712 123.254 46.6916C122.888 46.612 122.507 46.6428 122.158 46.7801C121.809 46.9174 121.509 47.155 121.295 47.4629C121.082 47.7707 120.964 48.1351 120.957 48.5098V48.5431C120.958 49.0424 121.154 49.5215 121.504 49.8777C121.678 50.0552 121.886 50.1957 122.115 50.2909C122.344 50.3861 122.591 50.4339 122.839 50.4315L122.819 50.4382ZM122.839 45.5338C123.646 45.54 124.417 45.8656 124.984 46.4393C125.551 47.013 125.868 47.788 125.865 48.5948C125.862 49.4015 125.539 50.1741 124.968 50.7434C124.396 51.3128 123.622 51.6325 122.816 51.6325C122.009 51.6325 121.235 51.3128 120.663 50.7434C120.092 50.1741 119.769 49.4015 119.766 48.5948C119.763 47.788 120.08 47.013 120.647 46.4393C121.214 45.8656 121.986 45.54 122.792 45.5338H122.839ZM129.932 46.7816H128.671V48.3029H129.919C130.12 48.3029 130.314 48.2228 130.456 48.0801C130.599 47.9375 130.679 47.744 130.679 47.5422C130.679 47.3405 130.599 47.147 130.456 47.0044C130.314 46.8617 130.12 46.7816 129.919 46.7816H129.932ZM127.47 45.8074C127.47 45.7702 127.484 45.7346 127.511 45.7083C127.537 45.682 127.573 45.6672 127.61 45.6672H129.965C130.39 45.6608 130.804 45.797 131.142 46.054C131.479 46.311 131.721 46.6739 131.828 47.0847C131.935 47.4954 131.901 47.9301 131.731 48.3192C131.562 48.7083 131.266 49.0291 130.893 49.2304L131.98 51.1922C131.993 51.2145 132 51.2398 132 51.2656C132 51.2913 131.993 51.3166 131.98 51.3389C131.968 51.3633 131.949 51.3834 131.925 51.3966C131.901 51.4097 131.874 51.4152 131.847 51.4123H130.893C130.867 51.413 130.841 51.4065 130.819 51.3935C130.797 51.3806 130.778 51.3617 130.766 51.3389L129.725 49.4106H128.664V51.2722C128.664 51.3095 128.65 51.3452 128.624 51.3723C128.611 51.3856 128.595 51.396 128.578 51.4029C128.561 51.4098 128.543 51.413 128.524 51.4123H127.603C127.568 51.4118 127.534 51.3975 127.51 51.3723C127.495 51.3603 127.484 51.3448 127.477 51.3273C127.47 51.3099 127.468 51.2909 127.47 51.2722V45.8074ZM135.05 46.7949V50.3314H135.944C136.169 50.3282 136.39 50.2806 136.597 50.1913C136.803 50.1019 136.989 49.9727 137.145 49.8109C137.452 49.4692 137.622 49.026 137.622 48.5665C137.622 48.107 137.452 47.6638 137.145 47.322C136.989 47.1571 136.801 47.0263 136.592 46.9378C136.383 46.8494 136.158 46.8053 135.931 46.8083L135.05 46.7949ZM135.944 45.6873C136.684 45.7229 137.381 46.0418 137.892 46.5778C138.403 47.1139 138.688 47.826 138.688 48.5665C138.688 49.307 138.403 50.0191 137.892 50.5551C137.381 51.0912 136.684 51.4101 135.944 51.4457H133.996C133.977 51.4464 133.958 51.4431 133.941 51.4363C133.924 51.4294 133.908 51.4189 133.895 51.4057C133.87 51.3759 133.856 51.3381 133.855 51.2989V45.8474C133.854 45.8284 133.857 45.8095 133.864 45.7917C133.871 45.7739 133.881 45.7577 133.894 45.744C133.907 45.7303 133.923 45.7193 133.94 45.7119C133.958 45.7044 133.977 45.7006 133.996 45.7006H135.944V45.6873ZM142.53 47.0885L141.863 48.9902H143.197L142.53 47.1019V47.0885ZM141.442 50.0778L140.995 51.3389C140.985 51.3683 140.966 51.3937 140.941 51.4117C140.916 51.4297 140.886 51.4392 140.855 51.439H139.887C139.862 51.4416 139.836 51.4374 139.813 51.4268C139.789 51.4163 139.769 51.3998 139.754 51.379C139.741 51.3579 139.734 51.3337 139.734 51.3089C139.734 51.2842 139.741 51.2599 139.754 51.2389L141.829 45.7873C141.837 45.7568 141.855 45.73 141.881 45.7117C141.907 45.6934 141.938 45.6847 141.969 45.6873H143.064C143.094 45.6863 143.124 45.6957 143.148 45.7139C143.172 45.7321 143.189 45.758 143.197 45.7873L145.306 51.2455C145.319 51.2666 145.325 51.2909 145.325 51.3156C145.325 51.3403 145.319 51.3646 145.306 51.3857C145.293 51.407 145.274 51.4241 145.251 51.4348C145.229 51.4455 145.203 51.4493 145.179 51.4457H144.205C144.174 51.4486 144.143 51.4409 144.118 51.4239C144.092 51.4069 144.074 51.3816 144.064 51.3523L143.617 50.0778H141.442ZM146.453 47.242C146.466 46.9969 146.529 46.7571 146.638 46.5373C146.748 46.3176 146.901 46.1226 147.089 45.9644C147.276 45.8061 147.494 45.6881 147.729 45.6175C147.964 45.5469 148.211 45.5252 148.455 45.5538C149.105 45.5386 149.735 45.7781 150.21 46.2211C150.224 46.2348 150.236 46.2513 150.244 46.2697C150.252 46.2881 150.256 46.3078 150.256 46.3278C150.256 46.3478 150.252 46.3676 150.244 46.386C150.236 46.4043 150.224 46.4209 150.21 46.4346L149.669 46.9817C149.656 46.995 149.641 47.0054 149.624 47.0123C149.606 47.0192 149.588 47.0224 149.569 47.0218C149.532 47.0216 149.496 47.0073 149.469 46.9817C149.216 46.7429 148.883 46.6072 148.535 46.6014C148.055 46.6014 147.694 46.8883 147.694 47.222C147.694 48.2896 150.557 47.669 150.557 49.7309C150.557 50.7718 149.776 51.5591 148.415 51.5591C148.036 51.5643 147.66 51.4931 147.309 51.3498C146.958 51.2065 146.64 50.994 146.373 50.7251C146.359 50.7113 146.347 50.6948 146.339 50.6764C146.331 50.6581 146.327 50.6383 146.327 50.6183C146.327 50.5983 146.331 50.5785 146.339 50.5602C146.347 50.5418 146.359 50.5253 146.373 50.5115L146.894 49.9844C146.907 49.9691 146.923 49.9569 146.942 49.9488C146.96 49.9407 146.98 49.9369 147 49.9377C147.02 49.9369 147.039 49.9407 147.056 49.9489C147.074 49.957 147.089 49.9692 147.101 49.9844C147.43 50.3088 147.873 50.4909 148.335 50.4915C148.935 50.4915 149.336 50.1712 149.336 49.7509C149.336 48.6833 146.48 49.3038 146.48 47.242H146.453ZM155.742 45.8207V47.9826H153.293V45.8007C153.293 45.7635 153.278 45.7279 153.252 45.7016C153.225 45.6753 153.19 45.6606 153.153 45.6606H152.232C152.195 45.6606 152.159 45.6753 152.133 45.7016C152.106 45.7279 152.092 45.7635 152.092 45.8007V51.2589C152.092 51.2967 152.106 51.333 152.132 51.3604C152.158 51.3877 152.194 51.404 152.232 51.4057H153.153C153.19 51.404 153.226 51.3877 153.252 51.3604C153.278 51.333 153.293 51.2967 153.293 51.2589V49.0636H155.715V51.2589C155.715 51.2956 155.728 51.3311 155.753 51.3582C155.778 51.3854 155.812 51.4023 155.848 51.4057H156.756C156.793 51.4025 156.828 51.3858 156.854 51.3587C156.879 51.3317 156.894 51.2962 156.896 51.2589V45.8074C156.896 45.7701 156.881 45.7344 156.856 45.7073C156.843 45.694 156.827 45.6836 156.81 45.6767C156.793 45.6698 156.774 45.6666 156.756 45.6672H155.848C155.812 45.6685 155.777 45.6826 155.75 45.7071C155.724 45.7315 155.706 45.7647 155.701 45.8007L155.742 45.8207ZM143.451 27.1575C142.744 25.8608 141.698 24.7801 140.426 24.0304C139.153 23.2808 137.701 22.8902 136.224 22.9003H113.384C113.23 22.9021 113.08 22.9484 112.952 23.0336C112.824 23.1189 112.724 23.2395 112.663 23.3808C112.604 23.5216 112.589 23.6768 112.618 23.8266C112.648 23.9764 112.722 24.1139 112.83 24.2215L117.814 29.1659C118.263 29.5969 118.861 29.8363 119.483 29.8332H135.564C135.833 29.82 136.102 29.86 136.355 29.9508C136.609 30.0416 136.842 30.1815 137.041 30.3624C137.241 30.5433 137.403 30.7618 137.518 31.0053C137.633 31.2488 137.699 31.5126 137.712 31.7816C137.725 32.0506 137.685 32.3195 137.595 32.5731C137.504 32.8267 137.364 33.0599 137.183 33.2594C137.002 33.4589 136.784 33.6208 136.54 33.7359C136.297 33.851 136.033 33.917 135.764 33.9301H124.494C124.339 33.9314 124.188 33.9775 124.059 34.0627C123.93 34.148 123.828 34.2688 123.766 34.4106C123.707 34.5529 123.691 34.7099 123.722 34.8611C123.753 35.0122 123.829 35.1506 123.94 35.258L128.924 40.2024C129.368 40.6355 129.966 40.8753 130.586 40.8696H135.61C142.156 40.8696 147.101 33.9769 143.444 27.1308" fill="white"/>
<path d="M230.677 137C219.344 136.823 205.354 135.76 197.562 127.792C189.417 120 188.177 106.01 188 94.6771C188.177 83.3438 189.24 69.3542 197.208 61.5625C205 53.4167 218.99 52.1771 230.323 52C241.656 52.1771 255.646 53.2396 263.438 61.2083C271.583 69 272.823 82.9896 273 94.1458C272.823 105.479 271.76 119.469 263.792 127.26C256 135.583 242.01 136.823 230.677 137Z" fill="#00355F"/>
<path d="M230.677 137C219.344 136.823 205.354 135.76 197.562 127.792C189.417 120 188.177 106.01 188 94.6771C188.177 83.3438 189.24 69.3542 197.208 61.5625C205 53.4167 218.99 52.1771 230.323 52C241.656 52.1771 255.646 53.2396 263.438 61.2083C271.583 69 272.823 82.9896 273 94.1458C272.823 105.479 271.76 119.469 263.792 127.26C256 135.583 242.01 136.823 230.677 137Z" fill="#04277C"/>
<mask id="mask2" mask-type="alpha" maskUnits="userSpaceOnUse" x="188" y="52" width="85" height="85">
<path d="M230.677 137C219.344 136.823 205.354 135.76 197.562 127.792C189.417 120 188.177 106.01 188 94.6771C188.177 83.3438 189.24 69.3542 197.208 61.5625C205 53.4167 218.99 52.1771 230.323 52C241.656 52.1771 255.646 53.2396 263.437 61.2083C271.583 69 272.823 82.9896 273 94.1458C272.823 105.479 271.76 119.469 263.792 127.26C256 135.583 242.01 136.823 230.677 137Z" fill="#00355F"/>
</mask>
<g mask="url(#mask2)">
</g>
<g clip-path="url(#clip1)">
<path d="M219.543 89.1176C216.743 89.1176 214.612 91.136 214.612 94.0106C214.612 96.8853 216.743 98.9037 219.543 98.9037C220.882 98.9037 221.917 98.2921 222.343 97.8028V98.7814H224.535V89.2399H222.343V90.2185C221.917 89.7292 220.821 89.1176 219.543 89.1176ZM219.604 96.8853C217.96 96.8853 216.743 95.6009 216.743 94.0106C216.743 92.4204 218.021 91.136 219.604 91.136C221.187 91.136 222.404 92.4204 222.404 94.0106C222.404 95.6009 221.187 96.8853 219.604 96.8853ZM238.413 89.1176C237.135 89.1176 236.161 89.6069 235.552 90.2185V89.2399H233.422V103.797L235.552 103.552V97.7416C236.161 98.4144 237.196 98.8426 238.413 98.8426C241.335 98.8426 243.283 96.9465 243.283 93.9495C243.283 91.0136 241.335 89.1176 238.413 89.1176ZM238.353 96.8853C236.648 96.8853 235.552 95.6621 235.552 94.0106C235.552 92.3592 236.648 91.136 238.353 91.136C240.057 91.136 241.214 92.3592 241.214 94.0106C241.153 95.6621 240.057 96.8853 238.353 96.8853ZM259.719 89.1176C258.38 89.1176 257.649 89.6069 257.223 90.2185V89.2399H255.092V98.7814H257.223V93.5213C257.223 92.1146 258.197 91.136 259.536 91.136H259.719V89.1176ZM249.005 89.1176C246.205 89.1176 244.014 91.3194 244.014 94.0106C244.014 96.7018 246.205 98.9037 249.005 98.9037C251.318 98.9037 253.205 97.6193 253.814 95.9067H251.257C250.953 96.5184 250.162 96.9465 249.005 96.9465C247.605 96.9465 246.509 95.9679 246.266 94.7446H253.875C253.936 94.5 253.936 94.2553 253.936 94.0106C253.936 91.3194 251.744 89.1176 249.005 89.1176ZM246.388 92.8485C246.692 91.8699 247.727 91.0748 249.005 91.0748C250.223 91.0748 251.318 91.8699 251.623 92.8485H246.388ZM229.1 91.0136C228.674 91.0136 228.187 91.1971 228.187 91.7476C228.187 92.3592 228.796 92.5427 229.952 92.9709C231.535 93.5825 232.326 94.3165 232.326 95.7844C232.326 97.3135 231.048 98.9037 228.856 98.9037C226.665 98.9037 225.508 97.2523 225.448 95.9067H227.517C227.639 96.5184 228.126 97.0077 228.856 97.0077C229.648 97.0077 230.135 96.4572 230.135 95.8456C230.135 95.4174 229.952 94.9281 228.613 94.5611C227.152 94.1941 226.117 93.399 226.117 91.8088C226.117 90.3408 227.396 89.1787 229.039 89.1787C230.5 89.1787 231.413 90.2185 231.839 90.8913L230.074 91.6864C229.83 91.1971 229.465 91.0136 229.1 91.0136Z" fill="white"/>
<path d="M208.16 85.2031C204.264 85.2031 201.281 88.2613 201.281 92.0535C201.281 95.8456 204.264 98.9038 208.16 98.9038C210.656 98.9038 212.969 97.5582 214.004 95.6621L211.995 94.5612C211.203 95.9679 209.864 96.7631 208.16 96.7631C206.942 96.7631 205.725 96.2737 204.934 95.4175C204.081 94.5 203.594 93.3379 203.594 92.1146C203.594 90.8913 204.081 89.7292 204.934 88.8118C205.725 87.9555 206.882 87.4662 208.16 87.4662C209.499 87.4662 210.29 87.8943 210.838 88.3225C211.447 88.7506 212.056 89.1788 213.09 89.1788C214.978 89.1788 215.83 87.6497 216.012 86.8545L213.882 86.4264C213.882 86.4876 213.699 87.0992 213.09 87.0992C212.786 87.0992 212.604 86.9769 212.177 86.6711C211.386 85.9371 210.351 85.2031 208.16 85.2031" fill="white"/>
</g>
<path d="M339.188 102C327.188 101.812 312.375 100.688 304.125 92.25C295.5 84 294.188 69.1875 294 57.1875C294.188 45.1875 295.312 30.375 303.75 22.125C312 13.5 326.812 12.1875 338.812 12C350.812 12.1875 365.625 13.3125 373.875 21.75C382.5 30 383.812 44.8125 384 56.625C383.812 68.625 382.688 83.4375 374.25 91.6875C366 100.5 351.188 101.812 339.188 102Z" fill="#1545FB"/>
<mask id="mask3" mask-type="alpha" maskUnits="userSpaceOnUse" x="294" y="12" width="90" height="90">
<path d="M339.188 102C327.188 101.812 312.375 100.688 304.125 92.25C295.5 84 294.188 69.1875 294 57.1875C294.188 45.1875 295.312 30.375 303.75 22.125C312 13.5 326.812 12.1875 338.812 12C350.812 12.1875 365.625 13.3125 373.875 21.75C382.5 30 383.812 44.8125 384 56.625C383.812 68.625 382.688 83.4375 374.25 91.6875C366 100.5 351.188 101.812 339.188 102Z" fill="#F74656"/>
</mask>
<g mask="url(#mask3)">
<path fill-rule="evenodd" clip-rule="evenodd" d="M326.139 60.0441H328.55L326.139 56.0222L324.101 52.6398L315.448 57.8241L316.77 60.0318L326.139 60.0441ZM348.586 60.0441H360.369L344.921 34.3136L336.271 39.5163L348.571 60.0318L348.586 60.0441ZM344.466 64.0722C343.615 63.5191 342.623 63.2243 341.609 63.2235H341.584C340.177 63.2235 338.827 63.7827 337.832 64.778C336.836 65.7733 336.277 67.1232 336.277 68.5308C336.277 69.9383 336.836 71.2883 337.832 72.2836C338.827 73.2789 340.177 73.838 341.584 73.838H341.615C342.63 73.8395 343.623 73.5445 344.472 72.9893V73.5428H346.91V60.0441H344.472V64.0722H344.466ZM344.466 69.0843C344.335 69.7476 343.98 70.3456 343.459 70.7771C342.939 71.2085 342.285 71.4469 341.609 71.4519H341.584C340.81 71.4519 340.067 71.1441 339.519 70.5963C338.971 70.0485 338.663 69.3055 338.663 68.5308C338.663 67.7561 338.971 67.0131 339.519 66.4652C340.067 65.9174 340.81 65.6097 341.584 65.6097H341.615C342.291 65.6102 342.946 65.8458 343.467 66.2761C343.988 66.7064 344.343 67.3046 344.472 67.9681V69.075L344.466 69.0843ZM355.919 64.0722C355.069 63.5176 354.075 63.2227 353.06 63.2235H353.035C351.628 63.2235 350.278 63.7827 349.282 64.778C348.287 65.7733 347.728 67.1232 347.728 68.5308C347.728 69.9383 348.287 71.2883 349.282 72.2836C350.278 73.2789 351.628 73.838 353.035 73.838H353.06C354.075 73.8405 355.07 73.5454 355.919 72.9893V73.5428H358.361V63.488H355.919V64.0722ZM355.919 69.0843C355.79 69.7484 355.434 70.3471 354.912 70.7787C354.391 71.2103 353.737 71.4482 353.06 71.4519H353.035C352.261 71.4519 351.518 71.1441 350.97 70.5963C350.422 70.0485 350.114 69.3055 350.114 68.5308C350.114 67.7561 350.422 67.0131 350.97 66.4652C351.518 65.9174 352.261 65.6097 353.035 65.6097H353.06C353.736 65.6101 354.391 65.8455 354.913 66.2758C355.434 66.7061 355.79 67.3043 355.919 67.9681V69.075V69.0843ZM367.035 67.8543C366.919 67.8011 366.8 67.7539 366.678 67.7129C365.804 67.4357 364.915 67.2058 364.016 67.0241C362.933 66.7843 362.386 66.4706 362.386 66.077C362.381 65.9524 362.404 65.8283 362.453 65.7139C362.503 65.5994 362.578 65.4976 362.672 65.4159C362.924 65.2007 363.37 65.1084 364.013 65.1084C364.655 65.1084 365.138 65.253 365.415 65.5297C365.624 65.7874 365.755 66.1003 365.79 66.4306H368.382C368.382 65.1638 367.865 64.2475 366.844 63.694C366.791 63.6595 366.734 63.6296 366.675 63.6048C365.784 63.2383 364.825 63.0674 363.862 63.1036C362.441 63.1036 361.371 63.4818 360.655 64.2413C360.089 64.842 359.783 65.6424 359.806 66.4675C359.806 67.5591 360.341 68.3432 361.43 68.8536C361.842 69.0504 362.844 69.3272 364.434 69.6685C365.498 69.8991 366.033 70.2312 366.033 70.6524C366.031 70.7812 365.999 70.9078 365.941 71.0224C365.882 71.1371 365.798 71.2367 365.694 71.3135C365.306 71.593 364.831 71.7259 364.354 71.6887C363.554 71.6887 362.995 71.5565 362.663 71.2982C362.498 71.1717 362.366 71.0071 362.279 70.8186C362.192 70.6301 362.151 70.4233 362.161 70.2158H359.443C359.417 70.7777 359.55 71.3355 359.827 71.8251C360.104 72.3148 360.513 72.7162 361.008 72.9832C361.828 73.4547 362.919 73.6925 364.28 73.6966C365.099 73.7115 365.913 73.5599 366.672 73.2507C366.811 73.1892 366.943 73.1277 367.072 73.0539C367.581 72.7879 368.002 72.3812 368.285 71.8823C368.569 71.3834 368.703 70.8134 368.671 70.2404C368.671 69.1857 368.127 68.3955 367.029 67.8789L367.035 67.8543ZM317.462 64.0599C316.608 63.5063 315.611 63.2116 314.593 63.2113H314.569C313.183 63.2446 311.865 63.8186 310.896 64.8105C309.928 65.8025 309.386 67.1338 309.386 68.52C309.386 69.9063 309.928 71.2376 310.896 72.2295C311.865 73.2215 313.183 73.7954 314.569 73.8288H314.593C315.611 73.8284 316.608 73.5337 317.462 72.9801V73.5336H319.9V63.4788H317.462V64.063V64.0599ZM317.462 69.072C317.331 69.7374 316.974 70.337 316.451 70.7686C315.928 71.2003 315.271 71.4374 314.593 71.4396H314.569C313.794 71.4396 313.051 71.1318 312.503 70.584C311.955 70.0362 311.647 69.2932 311.647 68.5185C311.647 67.7437 311.955 67.0007 312.503 66.4529C313.051 65.9051 313.794 65.5974 314.569 65.5974H314.593C315.27 65.5985 315.926 65.8341 316.449 66.2641C316.972 66.694 317.33 67.2918 317.462 67.9558V69.0627V69.072ZM332.689 62.4149H335.342V60.078H332.689V62.4149ZM332.689 73.5305H335.342V63.2113H332.689V73.5305ZM329.03 64.0599C328.177 63.5059 327.181 63.2111 326.164 63.2113H326.133C324.747 63.2446 323.429 63.8186 322.461 64.8105C321.493 65.8025 320.951 67.1338 320.951 68.52C320.951 69.9063 321.493 71.2376 322.461 72.2295C323.429 73.2215 324.747 73.7954 326.133 73.8288H326.164C327.181 73.8289 328.177 73.5341 329.03 72.9801V73.5336H331.471V60.0441H329.03V64.0722V64.0599ZM329.03 69.072C328.9 69.7371 328.543 70.3367 328.02 70.7684C327.498 71.2001 326.842 71.4373 326.164 71.4396H326.133C325.358 71.4396 324.615 71.1318 324.068 70.584C323.52 70.0362 323.212 69.2932 323.212 68.5185C323.212 67.7437 323.52 67.0007 324.068 66.4529C324.615 65.9051 325.358 65.5974 326.133 65.5974H326.164C326.841 65.5987 327.496 65.8344 328.018 66.2643C328.541 66.6943 328.898 67.292 329.03 67.9558V69.0627V69.072ZM344.456 60.0441L341.584 55.2166L334.512 43.4613L325.853 48.6671L326.139 49.1406L332.667 60.0441H344.456Z" fill="white"/>
</g>
<path d="M233.188 271C221.188 270.812 206.375 269.688 198.125 261.25C189.5 253 188.188 238.188 188 226.188C188.188 214.188 189.312 199.375 197.75 191.125C206 182.5 220.812 181.188 232.812 181C244.812 181.188 259.625 182.312 267.875 190.75C276.5 199 277.812 213.812 278 225.625C277.812 237.625 276.688 252.438 268.25 260.688C260 269.5 245.188 270.812 233.188 271Z" fill="#CA0813"/>
<mask id="mask4" mask-type="alpha" maskUnits="userSpaceOnUse" x="188" y="181" width="90" height="90">
<path d="M233.188 271C221.188 270.812 206.375 269.688 198.125 261.25C189.5 253 188.188 238.188 188 226.188C188.188 214.188 189.312 199.375 197.75 191.125C206 182.5 220.812 181.188 232.812 181C244.812 181.188 259.625 182.312 267.875 190.75C276.5 199 277.812 213.812 278 225.625C277.812 237.625 276.688 252.438 268.25 260.688C260 269.5 245.188 270.812 233.188 271Z" fill="#F74656"/>
</mask>
<g mask="url(#mask4)">
</g>
<path fill-rule="evenodd" clip-rule="evenodd" d="M233 196.536C249.27 196.536 262.462 209.728 262.462 226C262.462 242.27 249.27 255.462 232.997 255.462C216.728 255.462 203.536 242.27 203.536 225.997C203.536 209.728 216.728 196.536 233 196.536ZM233 245.213C235.542 245.243 238.065 244.768 240.423 243.816C242.78 242.864 244.926 241.453 246.734 239.666C248.542 237.878 249.978 235.75 250.958 233.404C251.937 231.057 252.442 228.54 252.442 225.997C252.441 223.455 251.937 220.938 250.957 218.591C249.976 216.245 248.541 214.117 246.732 212.33C244.923 210.543 242.778 209.132 240.42 208.18C238.063 207.228 235.54 206.754 232.997 206.784C227.941 206.844 223.111 208.894 219.556 212.491C216.002 216.088 214.008 220.942 214.008 225.999C214.008 231.056 216.002 235.909 219.556 239.506C223.111 243.103 227.941 245.154 232.997 245.213H233ZM233 235.429C230.499 235.429 228.101 234.435 226.333 232.667C224.565 230.899 223.571 228.501 223.571 226C223.571 223.499 224.565 221.101 226.333 219.333C228.101 217.565 230.499 216.571 233 216.571C235.501 216.571 237.899 217.565 239.667 219.333C241.435 221.101 242.429 223.499 242.429 226C242.429 228.501 241.435 230.899 239.667 232.667C237.899 234.435 235.501 235.429 233 235.429Z" fill="white"/>
<path d="M269.188 401C257.188 400.812 242.375 399.688 234.125 391.25C225.5 383 224.188 368.188 224 356.188C224.188 344.188 225.312 329.375 233.75 321.125C242 312.5 256.812 311.188 268.812 311C280.812 311.188 295.625 312.312 303.875 320.75C312.5 329 313.812 343.812 314 355.625C313.812 367.625 312.688 382.438 304.25 390.688C296 399.5 281.188 400.812 269.188 401Z" fill="#E95814"/>
<mask id="mask5" mask-type="alpha" maskUnits="userSpaceOnUse" x="224" y="311" width="90" height="90">
<path d="M269.188 401C257.188 400.812 242.375 399.688 234.125 391.25C225.5 383 224.188 368.188 224 356.188C224.188 344.188 225.312 329.375 233.75 321.125C242 312.5 256.812 311.188 268.812 311C280.812 311.188 295.625 312.312 303.875 320.75C312.5 329 313.812 343.812 314 355.625C313.812 367.625 312.688 382.438 304.25 390.688C296 399.5 281.188 400.812 269.188 401Z" fill="#FF0000"/>
</mask>
<g mask="url(#mask5)">
</g>
<g clip-path="url(#clip2)">
<path d="M299.29 345.261L254.682 364.376C250.982 365.951 247.875 366.739 245.362 366.739C242.516 366.739 240.453 365.736 239.172 363.732C238.366 362.443 238.128 360.809 238.46 358.828C238.792 356.847 239.67 354.735 241.093 352.492C242.279 350.679 244.223 348.292 246.927 345.333C245.978 346.86 245.314 348.435 244.935 350.058C244.223 353.113 244.864 355.356 246.856 356.788C247.804 357.456 249.109 357.79 250.769 357.79C252.097 357.79 253.591 357.575 255.251 357.146L299.29 345.261Z" fill="white"/>
</g>
<path d="M344.167 229C333.5 228.833 320.333 227.833 313 220.333C305.333 213 304.167 199.833 304 189.167C304.167 178.5 305.167 165.333 312.667 158C320 150.333 333.167 149.167 343.833 149C354.5 149.167 367.667 150.167 375 157.667C382.667 165 383.833 178.167 384 188.667C383.833 199.333 382.833 212.5 375.333 219.833C368 227.667 354.833 228.833 344.167 229Z" fill="black"/>
<mask id="mask6" mask-type="alpha" maskUnits="userSpaceOnUse" x="304" y="149" width="80" height="80">
<path d="M344.167 229C333.5 228.833 320.333 227.833 313 220.333C305.333 213 304.167 199.833 304 189.167C304.167 178.5 305.167 165.333 312.667 158C320 150.333 333.167 149.167 343.833 149C354.5 149.167 367.667 150.167 375 157.667C382.667 165 383.833 178.167 384 188.667C383.833 199.333 382.833 212.5 375.333 219.833C368 227.667 354.833 228.833 344.167 229Z" fill="#00355F"/>
</mask>
<g mask="url(#mask6)">
</g>
<path fill-rule="evenodd" clip-rule="evenodd" d="M317.067 190.922L316 190.964C316.126 192.49 317.14 193.401 318.682 193.401C320.225 193.401 321.312 192.426 321.312 191.145C321.312 189.82 320.521 189.231 318.905 188.684C318.422 188.515 317.946 188.41 317.555 188.122C317.415 188.013 317.303 187.871 317.23 187.709C317.157 187.547 317.124 187.37 317.134 187.192C317.134 186.42 317.694 185.879 318.571 185.879C319.448 185.879 320.006 186.397 320.134 187.436H321.186C321.112 185.913 320.134 185.004 318.556 185.004C317.056 185.004 316.116 185.871 316.116 187.192C316.098 187.496 316.151 187.8 316.271 188.081C316.39 188.361 316.572 188.61 316.804 188.808C317.363 189.275 317.976 189.439 318.556 189.635C319.654 190.005 320.239 190.302 320.239 191.2C320.239 191.93 319.659 192.462 318.697 192.462C317.683 192.462 317.071 191.894 317.06 190.931L317.067 190.922ZM324.304 193.236H328.495V192.283H325.347V189.569H328.495V188.64H325.347V186.111H328.495V185.16H324.302V193.239L324.304 193.236ZM333.397 185.158H331.672V193.236H332.724V190.453H333.599C335.282 190.453 336.428 189.353 336.428 187.819C336.424 186.245 335.292 185.158 333.399 185.158H333.397ZM333.555 189.492H332.713V186.109H333.378C334.665 186.109 335.341 186.698 335.341 187.777C335.341 188.856 334.682 189.492 333.553 189.492H333.555ZM338.951 193.236H339.997V189.548H344.232V193.241H345.277V185.162H344.232V188.597H339.997V185.162H338.951V193.241V193.236ZM355.119 186.111C354.317 185.395 353.279 185 352.204 185C351.129 185 350.092 185.395 349.289 186.111C348.486 186.936 348.037 188.041 348.037 189.193C348.037 190.344 348.486 191.45 349.289 192.275C349.676 192.649 350.135 192.941 350.637 193.134C351.14 193.327 351.676 193.417 352.214 193.398C352.752 193.418 353.288 193.328 353.791 193.135C354.293 192.942 354.751 192.65 355.138 192.275C355.941 191.45 356.391 190.344 356.391 189.193C356.391 188.041 355.941 186.936 355.138 186.111H355.119ZM354.368 191.581C354.084 191.865 353.744 192.088 353.37 192.236C352.995 192.384 352.595 192.453 352.193 192.439C351.794 192.453 351.396 192.384 351.025 192.236C350.655 192.088 350.318 191.865 350.038 191.581C349.44 190.928 349.109 190.076 349.109 189.191C349.109 188.306 349.44 187.453 350.038 186.801C350.623 186.252 351.396 185.946 352.198 185.946C353 185.946 353.773 186.252 354.358 186.801C354.959 187.451 355.294 188.303 355.296 189.189C355.298 190.074 354.967 190.928 354.368 191.581ZM361.664 190.095H361.727C363.175 190.095 364.155 189.043 364.155 187.609C364.155 186.085 363.078 185.156 361.105 185.156H359.274V193.234H360.326V189.948L363.198 193.239H364.519L361.664 190.095ZM360.314 189.302V186.109H361.021C362.394 186.109 363.082 186.656 363.082 187.64C363.082 188.692 362.388 189.302 361.077 189.302H360.314ZM370.44 185.158H369.564L366.27 193.236H367.389L368.108 191.364H371.895L372.615 193.236H373.835L370.44 185.158ZM368.477 190.417L369.766 187.177L370.008 186.428L370.25 187.177L371.512 190.417H368.477Z" fill="white"/>
<path d="M68.6562 301C58.6562 300.844 46.3125 299.906 39.4375 292.875C32.25 286 31.1562 273.656 31 263.656C31.1562 253.656 32.0937 241.312 39.125 234.438C46 227.25 58.3438 226.156 68.3438 226C78.3438 226.156 90.6875 227.094 97.5625 234.125C104.75 241 105.844 253.344 106 263.188C105.844 273.188 104.906 285.531 97.875 292.406C91 299.75 78.6562 300.844 68.6562 301Z" fill="black"/>
<mask id="mask7" mask-type="alpha" maskUnits="userSpaceOnUse" x="31" y="226" width="75" height="75">
<path d="M68.6562 301C58.6562 300.844 46.3125 299.906 39.4375 292.875C32.25 286 31.1562 273.656 31 263.656C31.1562 253.656 32.0937 241.312 39.125 234.438C46 227.25 58.3438 226.156 68.3438 226C78.3438 226.156 90.6875 227.094 97.5625 234.125C104.75 241 105.844 253.344 106 263.188C105.844 273.188 104.906 285.531 97.875 292.406C91 299.75 78.6562 300.844 68.6562 301Z" fill="#FF0000"/>
</mask>
<g mask="url(#mask7)">
</g>
<g clip-path="url(#clip3)">
<path d="M87.25 260.764V255.318H70.9753C66.2202 255.318 63.5719 258.182 63.5719 262.323V265.818H56.5V258.182C56.5 252.835 57.0247 250.262 63.085 250.262H87.25V244.75H59.5C53.4026 244.75 49.75 248.792 49.75 254.729V282.25H56.5V271.262H63.5727V282.25H70.3597V271.262H87.25V265.818H70.3597V263.988C70.3597 261.734 70.7202 260.762 73.8771 260.762L87.25 260.764Z" fill="white"/>
</g>
<path d="M40.1667 146C29.5 145.833 16.3333 144.833 9 137.333C1.33333 130 0.166667 116.833 0 106.167C0.166667 95.5 1.16667 82.3333 8.66667 75C16 67.3333 29.1667 66.1667 39.8333 66C50.5 66.1667 63.6667 67.1667 71 74.6667C78.6667 82 79.8333 95.1667 80 105.667C79.8333 116.333 78.8333 129.5 71.3333 136.833C64 144.667 50.8333 145.833 40.1667 146Z" fill="#152F54"/>
<mask id="mask8" mask-type="alpha" maskUnits="userSpaceOnUse" x="0" y="66" width="80" height="80">
<path d="M40.1667 146C29.5 145.833 16.3333 144.833 9 137.333C1.33333 130 0.166667 116.833 0 106.167C0.166667 95.5 1.16667 82.3333 8.66667 75C16 67.3333 29.1667 66.1667 39.8333 66C50.5 66.1667 63.6667 67.1667 71 74.6667C78.6667 82 79.8333 95.1667 80 105.667C79.8333 116.333 78.8333 129.5 71.3333 136.833C64 144.667 50.8333 145.833 40.1667 146Z" fill="#00355F"/>
</mask>
<g mask="url(#mask8)">
<path d="M44.8257 92.2794L43.6803 89.0389L33.9648 76.0602L35.7102 75.6275L52.4618 90.1021L62.3205 87.2841C63.4795 86.9843 64.7954 86.9196 65.7976 86.9264C62.6989 80.2479 57.0298 74.7654 49.5437 72.1009C34.7455 66.8296 18.4745 74.5576 13.2111 89.3558C11.5816 93.9319 11.193 98.6546 11.8782 103.146L35.4954 94.9439L44.8257 92.2794Z" fill="#072F54"/>
<path d="M66.8348 89.4841C65.9689 90.0464 64.6974 90.7824 63.4361 91.1878L53.5569 94.0057L46.964 115.159L45.2527 115.714L46.6436 99.5598L45.8663 96.2035L36.6076 98.8442L12.1382 104.603C14.0745 114.017 20.7424 122.215 30.4613 125.677C45.263 130.949 61.5271 123.217 66.7905 108.429C69.0609 102.054 68.9143 95.4028 66.8348 89.4841Z" fill="#072F54"/>
<path d="M45.8659 96.2058L46.6465 99.5586L45.2522 115.713L46.9635 115.158L53.5564 94.008L63.4356 91.1901C64.6969 90.7846 65.9684 90.0418 66.8343 89.4864C66.5309 88.6175 66.1832 87.7623 65.798 86.9275C64.7958 86.9206 63.4799 86.9888 62.3209 87.2818L52.4622 90.1065L35.7072 75.6252L33.9652 76.0613L43.6773 89.04L44.8261 92.277L35.4924 94.9484L11.8786 103.143C11.9536 103.634 12.0388 104.121 12.1377 104.605L36.6105 98.8465L45.8659 96.2058Z" fill="#FBC108"/>
<path d="M20.6427 123.644C21.7221 123.644 22.7873 123.644 23.8734 123.644C23.8734 124.126 23.8734 124.591 23.8734 125.083C22.8025 125.083 21.7311 125.083 20.6417 125.083C20.6417 126.052 20.6417 126.995 20.6417 127.962C21.9092 127.962 23.1629 127.962 24.4385 127.962C24.3805 128.468 24.2096 128.906 23.9517 129.312C23.9242 129.355 23.8301 129.374 23.767 129.374C22.4862 129.378 21.2054 129.38 19.9246 129.375C19.3894 129.373 19.0019 128.954 19.0015 128.387C18.9991 126.71 19.0005 125.032 19.0005 123.354C19.0005 122.633 18.9991 121.912 19.001 121.191C19.0024 120.553 19.3918 120.167 20.0362 120.166C21.4196 120.166 22.8034 120.166 24.1868 120.166C24.2647 120.166 24.3426 120.166 24.4328 120.166C24.3729 120.653 24.2219 121.087 23.9679 121.479C23.9227 121.549 23.7879 121.594 23.6939 121.595C22.7688 121.603 21.8437 121.6 20.9191 121.6C20.8331 121.6 20.7476 121.6 20.6432 121.6C20.6427 122.29 20.6427 122.958 20.6427 123.644Z" fill="white"/>
<path d="M49.0682 123.598C49.0682 123.494 49.0682 123.411 49.0682 123.329C49.0682 122.49 49.0724 121.651 49.0644 120.812C49.063 120.659 49.1147 120.57 49.2444 120.493C49.6623 120.245 50.1039 120.074 50.6239 120.016C50.6239 120.12 50.6239 120.204 50.6239 120.287C50.6239 123.148 50.622 126.009 50.6287 128.87C50.6291 129.063 50.574 129.181 50.3998 129.256C50.0407 129.409 49.6841 129.567 49.28 129.744C49.2695 129.518 49.2624 129.367 49.2553 129.223C48.883 129.342 48.5244 129.491 48.1507 129.571C46.4796 129.927 44.9656 128.875 44.7163 127.198C44.524 125.903 44.8607 124.795 45.9553 124.002C46.8082 123.384 47.7755 123.303 48.7832 123.536C48.8668 123.555 48.9504 123.572 49.0682 123.598ZM49.0682 126.43C49.0682 125.944 49.0729 125.459 49.0634 124.973C49.062 124.895 49.0169 124.774 48.958 124.747C48.088 124.356 46.9715 124.521 46.4905 125.528C46.2521 126.028 46.2112 126.556 46.291 127.09C46.387 127.737 46.7061 128.232 47.3909 128.38C47.9465 128.501 48.4736 128.358 48.9656 128.096C49.0245 128.065 49.062 127.944 49.0634 127.864C49.0729 127.387 49.0682 126.908 49.0682 126.43Z" fill="white"/>
<path d="M33.2739 129.617C33.2739 130.436 33.261 131.275 33.2819 132.112C33.2881 132.358 33.1955 132.478 32.9946 132.583C32.6 132.788 32.1944 132.948 31.7328 133C31.7328 129.884 31.7328 126.783 31.7328 123.666C31.7756 123.658 31.8198 123.642 31.8634 123.643C32.6218 123.658 33.365 123.572 34.1182 123.454C35.795 123.193 37.2848 124.116 37.6072 125.807C37.9629 127.67 36.9742 129.424 34.7194 129.613C34.2507 129.65 33.7763 129.617 33.2739 129.617ZM33.2753 126.562C33.2743 126.562 33.2739 126.562 33.2729 126.562C33.2729 127.11 33.2696 127.659 33.2767 128.208C33.2777 128.281 33.309 128.394 33.3612 128.42C33.981 128.732 35.135 128.468 35.6103 127.916C36.2053 127.223 36.2543 125.968 35.7105 125.234C35.418 124.839 35.0181 124.601 34.5276 124.586C34.1771 124.575 33.8238 124.646 33.4719 124.685C33.3242 124.702 33.2682 124.781 33.271 124.939C33.2819 125.479 33.2753 126.02 33.2753 126.562Z" fill="white"/>
<path d="M58.8391 123.778C58.8519 123.686 58.8628 123.611 58.8776 123.507C59.2836 123.507 59.6849 123.503 60.0852 123.513C60.1289 123.514 60.1849 123.587 60.2087 123.639C60.2296 123.684 60.2144 123.746 60.2144 123.802C60.2139 125.494 60.2101 127.187 60.2177 128.879C60.2186 129.062 60.1674 129.178 60.004 129.25C59.655 129.405 59.3064 129.561 58.8923 129.746C58.8923 129.45 58.8923 129.239 58.8923 129.063C58.5594 129.237 58.2621 129.476 57.9263 129.554C56.3478 129.921 54.4188 129.16 54.2678 126.882C54.1813 125.58 54.6539 124.51 55.8121 123.818C56.6869 123.296 57.6139 123.317 58.5475 123.672C58.6411 123.708 58.736 123.741 58.8391 123.778ZM58.6572 126.48C58.6572 126.01 58.661 125.539 58.6529 125.068C58.6515 124.994 58.6178 124.885 58.5632 124.853C57.5906 124.288 56.627 124.6 56.1735 125.345C55.8292 125.911 55.767 126.529 55.88 127.161C55.9874 127.76 56.3169 128.193 56.9343 128.368C57.5251 128.536 58.0588 128.376 58.5651 128.084C58.6197 128.052 58.6515 127.942 58.6529 127.867C58.661 127.405 58.6572 126.942 58.6572 126.48Z" fill="white"/>
<path d="M44.0239 126.887C42.5926 126.887 41.1959 126.887 39.7978 126.887C39.8529 127.765 40.4399 128.341 41.2999 128.403C42.0973 128.461 42.8058 128.192 43.4996 127.853C43.5846 127.812 43.6691 127.77 43.7546 127.729C43.7679 127.723 43.7845 127.723 43.8382 127.713C43.8382 128.129 43.841 128.539 43.8334 128.949C43.833 128.985 43.7703 129.035 43.7256 129.053C42.8272 129.411 41.9206 129.715 40.9248 129.617C39.5765 129.484 38.4563 128.438 38.2659 127.101C38.1006 125.94 38.3746 124.918 39.285 124.122C40.2837 123.25 41.9904 123.155 43.0361 123.91C43.7822 124.449 44.068 125.21 44.0595 126.099C44.0576 126.355 44.0372 126.612 44.0239 126.887ZM42.5764 125.989C42.612 125.232 42.0802 124.664 41.346 124.648C40.5448 124.63 39.8449 125.253 39.8463 125.989C40.7514 125.989 41.6566 125.989 42.5764 125.989Z" fill="white"/>
<path d="M31.0974 123.64C30.3371 124.548 29.6172 125.408 28.8792 126.288C29.7122 127.306 30.5413 128.318 31.409 129.379C31.2618 129.379 31.1644 129.379 31.0675 129.379C30.6249 129.379 30.1823 129.372 29.7397 129.382C29.5844 129.385 29.4809 129.342 29.3807 129.218C28.9082 128.63 28.4248 128.052 27.9252 127.448C27.6721 127.753 27.4322 128.042 27.1929 128.331C26.9474 128.628 26.7109 128.933 26.4535 129.219C26.3813 129.299 26.2512 129.367 26.1453 129.372C25.7198 129.388 25.2933 129.379 24.8042 129.379C25.6072 128.4 26.3804 127.457 27.1668 126.499C26.3989 125.559 25.6362 124.625 24.8317 123.64C25.2644 123.638 25.697 123.636 26.1296 123.634C26.2455 123.615 26.4236 123.604 26.6126 123.673C26.8847 123.774 27.03 123.989 27.1093 124.102C27.4128 124.538 27.7737 124.934 28.1218 125.362C28.5606 124.832 28.9861 124.328 29.3992 123.813C29.5037 123.684 29.6115 123.632 29.7782 123.637C30.1961 123.648 30.6145 123.64 31.0974 123.64Z" fill="white"/>
<path d="M51.8392 123.651C52.3445 123.651 52.8322 123.651 53.3431 123.651C53.3431 125.554 53.3431 127.45 53.3431 129.363C52.8493 129.363 52.3554 129.363 51.8392 129.363C51.8392 127.469 51.8392 125.572 51.8392 123.651Z" fill="white"/>
<path d="M52.5923 120.591C53.1004 120.592 53.5231 121.011 53.5278 121.519C53.5326 122.021 53.1038 122.445 52.5918 122.445C52.0808 122.445 51.6492 122.018 51.6553 121.519C51.6615 121.01 52.0846 120.591 52.5923 120.591Z" fill="white"/>
</g>
<path d="M129.146 211C119.813 210.854 108.292 209.979 101.875 203.417C95.1667 197 94.1458 185.479 94 176.146C94.1458 166.813 95.0208 155.292 101.583 148.875C108 142.167 119.521 141.146 128.854 141C138.188 141.146 149.708 142.021 156.125 148.583C162.833 155 163.854 166.521 164 175.708C163.854 185.042 162.979 196.562 156.417 202.979C150 209.833 138.479 210.854 129.146 211Z" fill="#051F41"/>
<path d="M129.146 211C119.813 210.854 108.292 209.979 101.875 203.417C95.1667 197 94.1458 185.479 94 176.146C94.1458 166.813 95.0208 155.292 101.583 148.875C108 142.167 119.521 141.146 128.854 141C138.188 141.146 149.708 142.021 156.125 148.583C162.833 155 163.854 166.521 164 175.708C163.854 185.042 162.979 196.562 156.417 202.979C150 209.833 138.479 210.854 129.146 211Z" fill="#1274D9"/>
<mask id="mask9" mask-type="alpha" maskUnits="userSpaceOnUse" x="94" y="141" width="70" height="70">
<path d="M129.146 211C119.813 210.854 108.292 209.979 101.875 203.417C95.1667 197 94.1458 185.479 94 176.146C94.1458 166.813 95.0208 155.292 101.583 148.875C108 142.167 119.521 141.146 128.854 141C138.188 141.146 149.708 142.021 156.125 148.583C162.833 155 163.854 166.521 164 175.708C163.854 185.042 162.979 196.562 156.417 202.979C150 209.833 138.479 210.854 129.146 211Z" fill="#FECC00"/>
</mask>
<g mask="url(#mask9)">
</g>
<path d="M129.053 168.174C130.171 168.174 131.092 167.59 131.216 166.836L132.32 154.301C132.32 153.062 130.876 152.045 129.057 152.045C127.242 152.045 125.798 153.062 125.798 154.301L126.9 166.836C127.023 167.59 127.943 168.174 129.057 168.174H129.053" fill="#FDBB30"/>
<path d="M122.306 172.089C122.867 171.118 122.824 170.026 122.234 169.542L111.973 162.315C110.906 161.695 109.306 162.442 108.398 164.023C107.488 165.601 107.649 167.365 108.714 167.985L120.074 173.297C120.785 173.561 121.753 173.053 122.31 172.082L122.306 172.089" fill="#FDBB30"/>
<path d="M135.806 172.082C136.365 173.053 137.329 173.561 138.041 173.297L149.402 167.985C150.473 167.365 150.625 165.601 149.722 164.023C148.81 162.443 147.207 161.695 146.143 162.315L135.882 169.542C135.295 170.026 135.251 171.119 135.81 172.089L135.805 172.082" fill="#FDBB30"/>
<path d="M129.053 183.83C130.171 183.83 131.092 184.41 131.216 185.164L132.32 197.698C132.32 198.94 130.876 199.955 129.057 199.955C127.242 199.955 125.798 198.94 125.798 197.698L126.9 185.164C127.023 184.41 127.943 183.83 129.057 183.83H129.053" fill="#FDBB30"/>
<path d="M135.806 179.915C136.365 178.943 137.329 178.437 138.041 178.706L149.402 184.013C150.473 184.634 150.625 186.399 149.722 187.98C148.81 189.555 147.207 190.303 146.143 189.685L135.882 182.465C135.295 181.976 135.251 180.883 135.81 179.914L135.805 179.915" fill="#FDBB30"/>
<path d="M122.306 179.914C122.867 180.883 122.824 181.975 122.234 182.465L111.973 189.685C110.906 190.303 109.306 189.555 108.398 187.98C107.488 186.399 107.649 184.634 108.714 184.012L120.074 178.706C120.785 178.437 121.753 178.943 122.31 179.915L122.306 179.914" fill="#FDBB30"/>
<defs>
<clipPath id="clip0">
<rect width="40" height="30" fill="white" transform="translate(144 302)"/>
</clipPath>
<clipPath id="clip1">
<rect width="58.4375" height="18.5938" fill="white" transform="translate(201.281 85.2031)"/>
</clipPath>
<clipPath id="clip2">
<rect width="61.3636" height="28.6363" fill="white" transform="translate(238.318 341.682)"/>
</clipPath>
<clipPath id="clip3">
<rect width="37.5" height="37.5" fill="white" transform="translate(49.75 244.75)"/>
</clipPath>
</defs>
</svg>
