<svg width="119" height="28" viewBox="0 0 119 28" fill="none" xmlns="http://www.w3.org/2000/svg">
<path d="M10.296 27.432C8.25605 27.432 6.42005 27.024 4.78805 26.208C3.15605 25.392 1.88405 24.276 0.972046 22.86L4.96805 19.512C5.59205 20.472 6.40805 21.216 7.41605 21.744C8.42405 22.272 9.45605 22.536 10.512 22.536C11.544 22.536 12.372 22.308 12.996 21.852C13.62 21.396 13.932 20.796 13.932 20.052C13.932 19.332 13.656 18.708 13.104 18.18C12.552 17.652 11.64 17.172 10.368 16.74L8.20805 15.984C6.14405 15.264 4.57205 14.304 3.49205 13.104C2.43605 11.904 1.90805 10.428 1.90805 8.676C1.90805 7.476 2.12405 6.408 2.55605 5.472C2.98805 4.512 3.58805 3.708 4.35605 3.06C5.12405 2.388 6.03605 1.884 7.09205 1.548C8.14805 1.188 9.30005 1.008 10.548 1.008C12.132 1.008 13.596 1.296 14.94 1.872C16.284 2.424 17.508 3.312 18.612 4.536L15.156 8.1C13.932 6.636 12.408 5.904 10.584 5.904C10.152 5.904 9.72005 5.952 9.28805 6.048C8.88005 6.144 8.52005 6.288 8.20805 6.48C7.89605 6.672 7.64405 6.912 7.45205 7.2C7.26005 7.464 7.16405 7.788 7.16405 8.172C7.16405 8.94 7.47605 9.552 8.10005 10.008C8.74805 10.44 9.75605 10.896 11.124 11.376L13.176 12.132C15.048 12.828 16.524 13.788 17.604 15.012C18.708 16.212 19.26 17.784 19.26 19.728C19.26 20.88 19.032 21.924 18.576 22.86C18.144 23.796 17.532 24.612 16.74 25.308C15.948 25.98 15 26.508 13.896 26.892C12.816 27.252 11.616 27.432 10.296 27.432Z" fill="black"/>
<path d="M29.9005 27.396C28.7005 27.396 27.5845 27.144 26.5525 26.64C25.5205 26.136 24.6205 25.464 23.8525 24.624C23.1085 23.76 22.5205 22.764 22.0885 21.636C21.6565 20.484 21.4405 19.272 21.4405 18C21.4405 16.728 21.6565 15.528 22.0885 14.4C22.5205 13.248 23.1085 12.252 23.8525 11.412C24.6205 10.548 25.5205 9.864 26.5525 9.36C27.5845 8.856 28.7005 8.604 29.9005 8.604C31.1485 8.604 32.2164 8.868 33.1045 9.396C34.0164 9.9 34.6765 10.44 35.0845 11.016V9H40.0165V27H35.0845V24.984C34.6765 25.56 34.0164 26.112 33.1045 26.64C32.2164 27.144 31.1485 27.396 29.9005 27.396ZM30.9445 22.896C32.3125 22.896 33.4044 22.44 34.2205 21.528C35.0605 20.592 35.4805 19.416 35.4805 18C35.4805 16.584 35.0605 15.42 34.2205 14.508C33.4044 13.572 32.3125 13.104 30.9445 13.104C29.5765 13.104 28.4725 13.572 27.6325 14.508C26.8165 15.42 26.4085 16.584 26.4085 18C26.4085 19.416 26.8165 20.592 27.6325 21.528C28.4725 22.44 29.5765 22.896 30.9445 22.896Z" fill="black"/>
<path d="M44.4612 0H49.3932V27H44.4612V0Z" fill="black"/>
<path d="M60.3312 27.396C59.2512 27.396 58.2912 27.204 57.4512 26.82C56.6112 26.436 55.9032 25.896 55.3272 25.2C54.7512 24.504 54.3072 23.676 53.9952 22.716C53.7072 21.732 53.5632 20.64 53.5632 19.44V9H58.4952V18.612C58.4952 19.98 58.7352 21.036 59.2152 21.78C59.6952 22.524 60.4752 22.896 61.5552 22.896C62.6592 22.896 63.5472 22.488 64.2192 21.672C64.9152 20.832 65.2632 19.536 65.2632 17.784V9H70.1952V27H65.2632V24.948C64.7832 25.668 64.1232 26.256 63.2832 26.712C62.4672 27.168 61.4832 27.396 60.3312 27.396Z" fill="black"/>
<path d="M83.3052 27.216C82.3452 27.216 81.4452 27.084 80.6052 26.82C79.7892 26.556 79.0692 26.16 78.4452 25.632C77.8212 25.08 77.3292 24.396 76.9692 23.58C76.6092 22.764 76.4292 21.804 76.4292 20.7V13.32H72.7932V9H76.4292V3.996H81.3612V9H86.4372V13.32H81.3612V19.728C81.3612 20.832 81.6012 21.624 82.0812 22.104C82.5612 22.56 83.3412 22.788 84.4212 22.788C85.1892 22.788 85.8612 22.68 86.4372 22.464V26.82C86.0292 26.94 85.5732 27.036 85.0692 27.108C84.5892 27.18 84.0012 27.216 83.3052 27.216Z" fill="black"/>
<path d="M97.7484 27.396C96.4044 27.396 95.1444 27.18 93.9684 26.748C92.8164 26.292 91.8084 25.656 90.9444 24.84C90.1044 24.024 89.4324 23.04 88.9284 21.888C88.4484 20.712 88.2084 19.416 88.2084 18C88.2084 16.68 88.4364 15.444 88.8924 14.292C89.3724 13.14 90.0324 12.144 90.8724 11.304C91.7364 10.464 92.7444 9.804 93.8964 9.324C95.0484 8.844 96.3084 8.604 97.6764 8.604C98.8524 8.604 99.9684 8.796 101.024 9.18C102.104 9.54 103.052 10.092 103.868 10.836C104.684 11.58 105.332 12.504 105.812 13.608C106.292 14.712 106.532 15.996 106.532 17.46C106.532 17.676 106.532 17.916 106.532 18.18C106.532 18.444 106.508 18.768 106.46 19.152H92.9964C93.0684 19.752 93.2484 20.292 93.5364 20.772C93.8244 21.228 94.1844 21.612 94.6164 21.924C95.0484 22.236 95.5284 22.476 96.0564 22.644C96.6084 22.812 97.1844 22.896 97.7844 22.896C98.9124 22.896 99.8604 22.68 100.628 22.248C101.42 21.792 102.02 21.252 102.428 20.628L106.1 23.364C105.26 24.588 104.132 25.572 102.716 26.316C101.3 27.036 99.6444 27.396 97.7484 27.396ZM101.6 15.804C101.384 14.724 100.88 13.932 100.088 13.428C99.2964 12.924 98.4444 12.672 97.5324 12.672C97.0764 12.672 96.6084 12.732 96.1284 12.852C95.6724 12.972 95.2404 13.164 94.8324 13.428C94.4484 13.668 94.1004 13.992 93.7884 14.4C93.5004 14.784 93.2964 15.252 93.1764 15.804H101.6Z" fill="black"/>
<path d="M111.551 11.088L113.603 1.44H118.571L116.519 11.088L114.107 17.856H111.083L111.551 11.088ZM111.299 27.288C110.291 27.288 109.439 26.94 108.743 26.244C108.047 25.548 107.699 24.696 107.699 23.688C107.699 22.68 108.047 21.828 108.743 21.132C109.439 20.436 110.291 20.088 111.299 20.088C112.307 20.088 113.159 20.436 113.855 21.132C114.551 21.828 114.899 22.68 114.899 23.688C114.899 24.696 114.551 25.548 113.855 26.244C113.159 26.94 112.307 27.288 111.299 27.288Z" fill="black"/>
</svg>
