<svg width="56" height="43" viewBox="0 0 56 43" fill="none" xmlns="http://www.w3.org/2000/svg">
<path d="M26.2533 35.1812C26.2633 34.3533 26.0248 33.5411 25.5681 32.8478C25.1114 32.1546 24.4571 31.6116 23.6883 31.2879C22.9195 30.9641 22.071 30.8743 21.2506 31.0297C20.4302 31.1851 19.6749 31.5788 19.0807 32.1607C18.4865 32.7426 18.0803 33.4865 17.9136 34.2978C17.747 35.1092 17.8274 35.9513 18.1447 36.7172C18.4619 37.4831 19.0018 38.1383 19.6955 38.5993C20.3893 39.0604 21.2057 39.3066 22.041 39.3067C22.5919 39.314 23.1388 39.2127 23.6499 39.0085C24.161 38.8044 24.6261 38.5016 25.018 38.1177C25.41 37.7339 25.7211 37.2765 25.9331 36.7724C26.1452 36.2683 26.254 35.7274 26.2533 35.1812ZM29.6919 28.439V41.9735H26.1876V40.7554C24.9394 41.7565 23.3784 42.2953 21.7729 42.2793C20.8163 42.3044 19.8642 42.1394 18.9729 41.7939C18.0816 41.4484 17.2692 40.9294 16.5835 40.2676C15.8979 39.6057 15.353 38.8145 14.9809 37.9404C14.6088 37.0664 14.4171 36.1274 14.4171 35.1787C14.4171 34.23 14.6088 33.291 14.9809 32.4169C15.353 31.5429 15.8979 30.7516 16.5835 30.0898C17.2692 29.428 18.0816 28.909 18.9729 28.5635C19.8642 28.218 20.8163 28.0529 21.7729 28.0781C23.3899 28.0712 24.9585 28.6244 26.2078 29.6421V28.439H29.6919ZM41.3227 38.8856H38.6881C37.884 38.8856 37.3682 38.5397 37.3682 37.8229V31.4868H41.3227V28.439H37.3834V24.5792H33.8436V28.439H31.1837V31.5018H33.8487V38.6951C33.8487 40.5097 35.1685 41.9484 37.5452 41.9484H41.3378L41.3227 38.8856ZM49.3074 42.2943C53.3529 42.2943 55.6386 40.4195 55.6386 37.8229C55.6386 35.9782 54.2884 34.5997 51.4616 34.0082L48.473 33.4117C46.7385 33.1009 46.1924 32.7851 46.1924 32.1635C46.1924 31.3464 47.0268 30.8452 48.5691 30.8452C50.2379 30.8452 51.4616 31.2863 51.8156 32.7851H55.32C55.1228 29.9729 53.0343 28.0932 48.7916 28.0932C45.1305 28.0932 42.5565 29.5669 42.5565 32.4091C42.5565 34.3792 43.9725 35.6624 47.0268 36.289L50.3694 37.0409C51.6841 37.2916 52.0381 37.6324 52.0381 38.1638C52.0381 39.0109 51.0267 39.5423 49.4338 39.5423C47.4111 39.5423 46.2531 39.1062 45.803 37.6024H42.2632C42.7689 40.4195 44.9333 42.2943 49.3024 42.2943H49.3074ZM0.220703 23.6418H13.4342V26.7648H3.79083V31.2412H13.1763V34.2488H3.79083V38.7603H13.4342V41.8883H0.220703V23.6418Z" fill="#06C167"/>
<path d="M55.3352 7.79152V5.33527H54.3946C53.7383 5.30926 53.087 5.45776 52.5082 5.76538C51.9293 6.073 51.444 6.52853 51.1026 7.08472V5.44054H48.4174V18.7694H51.1279V11.1902C51.1279 9.12491 52.4174 7.79152 54.1923 7.79152H55.3352ZM35.836 10.8944C36.0273 9.9357 36.5483 9.07249 37.31 8.4521C38.0718 7.83171 39.0271 7.49258 40.013 7.49258C40.9988 7.49258 41.9542 7.83171 42.7159 8.4521C43.4777 9.07249 43.9986 9.9357 44.1899 10.8944H35.836ZM40.0787 5.17987C39.1568 5.17192 38.2424 5.34515 37.3884 5.68955C36.5343 6.03394 35.7576 6.54268 35.1031 7.18636C34.4486 7.83004 33.9293 8.59591 33.5751 9.43972C33.2209 10.2835 33.0389 11.1885 33.0396 12.1025C33.0396 16.0776 36.2102 19.0552 40.3214 19.0552C41.463 19.078 42.5938 18.8318 43.6206 18.3368C44.6474 17.8418 45.541 17.1122 46.2278 16.2079L44.2658 14.7943C43.8189 15.4149 43.2261 15.9182 42.5388 16.2606C41.8516 16.6029 41.0905 16.7741 40.3214 16.7593C39.2306 16.7732 38.1709 16.3983 37.3356 15.7027C36.5002 15.0071 35.9447 14.0372 35.7703 12.9697H46.8953V12.1025C46.8953 8.13238 43.9977 5.17987 40.0484 5.17987H40.0787ZM24.5845 16.7593C23.6627 16.7534 22.7633 16.477 21.9998 15.965C21.2362 15.453 20.6427 14.7283 20.2941 13.8824C19.9454 13.0365 19.8573 12.1071 20.0408 11.2116C20.2243 10.3161 20.6713 9.49451 21.3252 8.85045C21.9792 8.20639 22.8109 7.76871 23.7154 7.59261C24.62 7.41651 25.5569 7.50988 26.408 7.86093C27.2591 8.21199 27.9863 8.80501 28.4978 9.56522C29.0093 10.3254 29.2823 11.2188 29.2824 12.1326C29.281 12.7423 29.1584 13.3458 28.9215 13.9085C28.6845 14.4713 28.338 14.9821 27.9016 15.4119C27.4652 15.8417 26.9476 16.1819 26.3785 16.4131C25.8093 16.6443 25.1997 16.762 24.5845 16.7593ZM17.2218 18.7694H19.907V17.0952C20.5491 17.7316 21.3115 18.2363 22.1506 18.5803C22.9896 18.9244 23.8889 19.1011 24.7969 19.1003C25.7355 19.1252 26.6696 18.9635 27.5442 18.6247C28.4187 18.2859 29.2158 17.7769 29.8886 17.1276C30.5614 16.4784 31.0961 15.7021 31.4612 14.8446C31.8263 13.9871 32.0145 13.0658 32.0145 12.1351C32.0145 11.2043 31.8263 10.283 31.4612 9.42552C31.0961 8.56804 30.5614 7.79176 29.8886 7.14251C29.2158 6.49326 28.4187 5.9842 27.5442 5.64539C26.6696 5.30658 25.7355 5.14489 24.7969 5.16985C23.8927 5.16935 22.9973 5.34627 22.1624 5.6904C21.3275 6.03454 20.5695 6.53908 19.9323 7.17495V0.4729H17.2218V18.7694ZM7.66437 16.624C10.2686 16.624 12.2813 14.664 12.2813 11.7666V0.4729H15.103V18.7694H12.3065V17.0701C11.6575 17.7183 10.8831 18.23 10.0299 18.5746C9.1766 18.9191 8.26196 19.0894 7.34073 19.0752C3.29526 19.0752 0.220703 16.223 0.220703 11.912V0.4729H3.06265V11.7666C3.06265 14.7191 5.04998 16.624 7.6846 16.624" fill="#F6F0EA"/>
</svg>
