<svg width="150" height="150" viewBox="0 0 150 150" fill="none" xmlns="http://www.w3.org/2000/svg">
<g filter="url(#filter0_dd)">
<rect x="33.6482" y="20.1436" width="82.5613" height="82.5613" rx="18.0956" fill="#142328"/>
</g>
<path d="M73.2533 75.1812C73.2633 74.3533 73.0248 73.5411 72.5681 72.8478C72.1114 72.1546 71.4571 71.6116 70.6883 71.2879C69.9195 70.9641 69.071 70.8743 68.2506 71.0297C67.4302 71.1851 66.6749 71.5788 66.0807 72.1607C65.4865 72.7426 65.0803 73.4865 64.9136 74.2978C64.747 75.1092 64.8274 75.9513 65.1447 76.7172C65.4619 77.4831 66.0018 78.1383 66.6955 78.5993C67.3893 79.0604 68.2057 79.3066 69.041 79.3067C69.5919 79.314 70.1388 79.2127 70.6499 79.0085C71.161 78.8044 71.6261 78.5016 72.018 78.1177C72.41 77.7339 72.7211 77.2765 72.9331 76.7724C73.1452 76.2683 73.254 75.7274 73.2533 75.1812ZM76.6919 68.439V81.9735H73.1876V80.7554C71.9394 81.7565 70.3784 82.2953 68.7729 82.2793C67.8163 82.3044 66.8642 82.1394 65.9729 81.7939C65.0816 81.4484 64.2692 80.9294 63.5835 80.2676C62.8979 79.6057 62.353 78.8145 61.9809 77.9404C61.6088 77.0664 61.4171 76.1274 61.4171 75.1787C61.4171 74.23 61.6088 73.291 61.9809 72.4169C62.353 71.5429 62.8979 70.7516 63.5835 70.0898C64.2692 69.428 65.0816 68.909 65.9729 68.5635C66.8642 68.218 67.8163 68.0529 68.7729 68.0781C70.3899 68.0712 71.9585 68.6244 73.2078 69.6421V68.439H76.6919ZM88.3227 78.8856H85.6881C84.884 78.8856 84.3682 78.5397 84.3682 77.8229V71.4868H88.3227V68.439H84.3834V64.5792H80.8436V68.439H78.1837V71.5018H80.8487V78.6951C80.8487 80.5097 82.1685 81.9484 84.5452 81.9484H88.3378L88.3227 78.8856ZM96.3074 82.2943C100.353 82.2943 102.639 80.4195 102.639 77.8229C102.639 75.9782 101.288 74.5997 98.4616 74.0082L95.473 73.4117C93.7385 73.1009 93.1924 72.7851 93.1924 72.1635C93.1924 71.3464 94.0268 70.8452 95.5691 70.8452C97.2379 70.8452 98.4616 71.2863 98.8156 72.7851H102.32C102.123 69.9729 100.034 68.0932 95.7916 68.0932C92.1305 68.0932 89.5565 69.5669 89.5565 72.4091C89.5565 74.3792 90.9725 75.6624 94.0268 76.289L97.3694 77.0409C98.6841 77.2916 99.0381 77.6324 99.0381 78.1638C99.0381 79.0109 98.0267 79.5423 96.4338 79.5423C94.4111 79.5423 93.2531 79.1062 92.803 77.6024H89.2632C89.7689 80.4195 91.9333 82.2943 96.3024 82.2943H96.3074ZM47.2207 63.6418H60.4342V66.7648H50.7908V71.2412H60.1763V74.2488H50.7908V78.7603H60.4342V81.8883H47.2207V63.6418Z" fill="#06C167"/>
<path d="M102.335 47.7915V45.3353H101.395C100.738 45.3093 100.087 45.4578 99.5082 45.7654C98.9293 46.073 98.444 46.5285 98.1026 47.0847V45.4405H95.4174V58.7694H98.1279V51.1902C98.1279 49.1249 99.4174 47.7915 101.192 47.7915H102.335ZM82.836 50.8944C83.0273 49.9357 83.5483 49.0725 84.31 48.4521C85.0718 47.8317 86.0271 47.4926 87.013 47.4926C87.9988 47.4926 88.9542 47.8317 89.7159 48.4521C90.4777 49.0725 90.9986 49.9357 91.1899 50.8944H82.836ZM87.0787 45.1799C86.1568 45.1719 85.2424 45.3452 84.3884 45.6895C83.5343 46.0339 82.7576 46.5427 82.1031 47.1864C81.4486 47.83 80.9293 48.5959 80.5751 49.4397C80.2209 50.2835 80.0389 51.1885 80.0396 52.1025C80.0396 56.0776 83.2102 59.0552 87.3214 59.0552C88.463 59.078 89.5938 58.8318 90.6206 58.3368C91.6474 57.8418 92.541 57.1122 93.2278 56.2079L91.2658 54.7943C90.8189 55.4149 90.2261 55.9182 89.5388 56.2606C88.8516 56.6029 88.0905 56.7741 87.3214 56.7593C86.2306 56.7732 85.1709 56.3983 84.3356 55.7027C83.5002 55.0071 82.9447 54.0372 82.7703 52.9697H93.8953V52.1025C93.8953 48.1324 90.9977 45.1799 87.0484 45.1799H87.0787ZM71.5845 56.7593C70.6627 56.7534 69.7633 56.477 68.9998 55.965C68.2362 55.453 67.6427 54.7283 67.2941 53.8824C66.9454 53.0365 66.8573 52.1071 67.0408 51.2116C67.2243 50.3161 67.6713 49.4945 68.3252 48.8505C68.9792 48.2064 69.8109 47.7687 70.7154 47.5926C71.62 47.4165 72.5569 47.5099 73.408 47.8609C74.2591 48.212 74.9863 48.805 75.4978 49.5652C76.0093 50.3254 76.2823 51.2188 76.2824 52.1326C76.281 52.7423 76.1584 53.3458 75.9215 53.9085C75.6845 54.4713 75.338 54.9821 74.9016 55.4119C74.4652 55.8417 73.9476 56.1819 73.3785 56.4131C72.8093 56.6443 72.1997 56.762 71.5845 56.7593ZM64.2218 58.7694H66.907V57.0952C67.5491 57.7316 68.3115 58.2363 69.1506 58.5803C69.9896 58.9244 70.8889 59.1011 71.7969 59.1003C72.7355 59.1252 73.6696 58.9635 74.5442 58.6247C75.4187 58.2859 76.2158 57.7769 76.8886 57.1276C77.5614 56.4784 78.0961 55.7021 78.4612 54.8446C78.8263 53.9871 79.0145 53.0658 79.0145 52.1351C79.0145 51.2043 78.8263 50.283 78.4612 49.4255C78.0961 48.568 77.5614 47.7918 76.8886 47.1425C76.2158 46.4933 75.4187 45.9842 74.5442 45.6454C73.6696 45.3066 72.7355 45.1449 71.7969 45.1698C70.8927 45.1694 69.9973 45.3463 69.1624 45.6904C68.3275 46.0345 67.5695 46.5391 66.9323 47.1749V40.4729H64.2218V58.7694ZM54.6644 56.624C57.2686 56.624 59.2813 54.664 59.2813 51.7666V40.4729H62.103V58.7694H59.3065V57.0701C58.6575 57.7183 57.8831 58.23 57.0299 58.5746C56.1766 58.9191 55.262 59.0894 54.3407 59.0752C50.2953 59.0752 47.2207 56.223 47.2207 51.912V40.4729H50.0626V51.7666C50.0626 54.7191 52.05 56.624 54.6846 56.624" fill="#F6F0EA"/>
<mask id="mask0" mask-type="alpha" maskUnits="userSpaceOnUse" x="33" y="20" width="84" height="83">
<rect x="33.6479" y="20.1436" width="82.5613" height="82.5613" rx="18.0956" fill="#002A5F"/>
</mask>
<g mask="url(#mask0)">
<g filter="url(#filter1_dd)">
<path d="M87.9346 20.1436H116.209V40.5011H101.506C95.1085 40.5011 91.9096 40.5011 89.9221 38.5136C87.9346 36.5261 87.9346 33.3272 87.9346 26.9294V20.1436Z" fill="#FFF500"/>
<path d="M95.9673 35.5299C95.619 35.5299 95.2748 35.4802 94.9347 35.3806C94.603 35.2811 94.2961 35.1401 94.0141 34.9577C93.7321 34.7669 93.4875 34.5388 93.2801 34.2734C93.0811 33.9997 92.9401 33.697 92.8571 33.3652L93.9395 32.992C94.0556 33.4316 94.292 33.7924 94.6486 34.0744C95.0052 34.3481 95.449 34.4849 95.9798 34.4849C96.2369 34.4849 96.4815 34.4434 96.7138 34.3605C96.946 34.2693 97.1492 34.149 97.3234 33.9997C97.4975 33.8421 97.6344 33.6555 97.7339 33.4399C97.8417 33.2242 97.8956 32.9879 97.8956 32.7308C97.8956 32.1668 97.7132 31.7313 97.3482 31.4245C96.9916 31.1093 96.523 30.9517 95.9424 30.9517H94.8974V30.0684L97.1367 27.6176H93.3548V26.5726H98.5674V27.4559L96.3032 29.9565C96.7179 29.9731 97.0911 30.056 97.4229 30.2053C97.7546 30.3546 98.0325 30.5536 98.2564 30.8024C98.4886 31.0513 98.667 31.3415 98.7914 31.6733C98.9158 32.005 98.978 32.3575 98.978 32.7308C98.978 33.1289 98.9033 33.5021 98.754 33.8504C98.6131 34.1905 98.4099 34.4849 98.1444 34.7337C97.879 34.9825 97.5597 35.1774 97.1865 35.3184C96.8216 35.4594 96.4152 35.5299 95.9673 35.5299ZM102.14 35.4055L107.739 26.5726H108.896L103.297 35.4055H102.14ZM108.834 35.505C108.494 35.505 108.174 35.4428 107.876 35.3184C107.577 35.1857 107.316 35.0074 107.092 34.7835C106.876 34.5595 106.702 34.3024 106.569 34.0122C106.445 33.7136 106.383 33.3943 106.383 33.0542C106.383 32.7142 106.445 32.3949 106.569 32.0963C106.702 31.7977 106.876 31.5406 107.092 31.325C107.316 31.101 107.577 30.9268 107.876 30.8024C108.174 30.6697 108.494 30.6034 108.834 30.6034C109.165 30.6034 109.48 30.6697 109.779 30.8024C110.078 30.9268 110.339 31.101 110.563 31.325C110.787 31.5406 110.961 31.7977 111.085 32.0963C111.218 32.3949 111.284 32.7142 111.284 33.0542C111.284 33.3943 111.218 33.7136 111.085 34.0122C110.961 34.3024 110.787 34.5595 110.563 34.7835C110.339 35.0074 110.078 35.1857 109.779 35.3184C109.48 35.4428 109.165 35.505 108.834 35.505ZM108.834 34.5347C109.033 34.5347 109.219 34.4973 109.393 34.4227C109.576 34.3398 109.733 34.2319 109.866 34.0992C109.999 33.9582 110.103 33.8007 110.177 33.6265C110.26 33.444 110.302 33.2533 110.302 33.0542C110.302 32.8552 110.26 32.6686 110.177 32.4944C110.103 32.3119 109.999 32.1543 109.866 32.0216C109.733 31.8806 109.576 31.7728 109.393 31.6982C109.219 31.6152 109.033 31.5738 108.834 31.5738C108.626 31.5738 108.431 31.6152 108.249 31.6982C108.075 31.7728 107.921 31.8806 107.789 32.0216C107.656 32.1543 107.552 32.3119 107.478 32.4944C107.403 32.6686 107.366 32.8552 107.366 33.0542C107.366 33.2533 107.403 33.444 107.478 33.6265C107.552 33.8007 107.656 33.9582 107.789 34.0992C107.921 34.2319 108.075 34.3398 108.249 34.4227C108.431 34.4973 108.626 34.5347 108.834 34.5347ZM102.203 31.3747C101.863 31.3747 101.543 31.3125 101.245 31.1881C100.946 31.0554 100.685 30.8771 100.461 30.6532C100.245 30.4292 100.071 30.1721 99.9384 29.8818C99.814 29.5832 99.7518 29.2639 99.7518 28.9239C99.7518 28.5838 99.814 28.2645 99.9384 27.9659C100.071 27.6674 100.245 27.4103 100.461 27.1946C100.685 26.9707 100.946 26.7965 101.245 26.6721C101.543 26.5394 101.863 26.4731 102.203 26.4731C102.534 26.4731 102.85 26.5394 103.148 26.6721C103.447 26.7965 103.708 26.9707 103.932 27.1946C104.156 27.4103 104.33 27.6674 104.454 27.9659C104.587 28.2645 104.653 28.5838 104.653 28.9239C104.653 29.2639 104.587 29.5832 104.454 29.8818C104.33 30.1721 104.156 30.4292 103.932 30.6532C103.708 30.8771 103.447 31.0554 103.148 31.1881C102.85 31.3125 102.534 31.3747 102.203 31.3747ZM102.203 30.4043C102.402 30.4043 102.588 30.367 102.762 30.2924C102.945 30.2094 103.103 30.1016 103.235 29.9689C103.368 29.8279 103.472 29.6703 103.546 29.4962C103.629 29.3137 103.671 29.1229 103.671 28.9239C103.671 28.7248 103.629 28.5382 103.546 28.3641C103.472 28.1816 103.368 28.024 103.235 27.8913C103.103 27.7503 102.945 27.6425 102.762 27.5678C102.588 27.4849 102.402 27.4434 102.203 27.4434C101.995 27.4434 101.8 27.4849 101.618 27.5678C101.444 27.6425 101.29 27.7503 101.158 27.8913C101.025 28.024 100.921 28.1816 100.847 28.3641C100.772 28.5382 100.735 28.7248 100.735 28.9239C100.735 29.1229 100.772 29.3137 100.847 29.4962C100.921 29.6703 101.025 29.8279 101.158 29.9689C101.29 30.1016 101.444 30.2094 101.618 30.2924C101.8 30.367 101.995 30.4043 102.203 30.4043Z" fill="black"/>
</g>
</g>
<defs>
<filter id="filter0_dd" x="0.622169" y="0.740765" width="148.613" height="148.613" filterUnits="userSpaceOnUse" color-interpolation-filters="sRGB">
<feFlood flood-opacity="0" result="BackgroundImageFix"/>
<feColorMatrix in="SourceAlpha" type="matrix" values="0 0 0 0 0 0 0 0 0 0 0 0 0 0 0 0 0 0 127 0"/>
<feOffset dy="6.61383"/>
<feGaussianBlur stdDeviation="8.01676"/>
<feColorMatrix type="matrix" values="0 0 0 0 0 0 0 0 0 0 0 0 0 0 0 0 0 0 0.0333774 0"/>
<feBlend mode="normal" in2="BackgroundImageFix" result="effect1_dropShadow"/>
<feColorMatrix in="SourceAlpha" type="matrix" values="0 0 0 0 0 0 0 0 0 0 0 0 0 0 0 0 0 0 127 0"/>
<feOffset dy="13.6232"/>
<feGaussianBlur stdDeviation="16.513"/>
<feColorMatrix type="matrix" values="0 0 0 0 0 0 0 0 0 0 0 0 0 0 0 0 0 0 0.0413989 0"/>
<feBlend mode="normal" in2="effect1_dropShadow" result="effect2_dropShadow"/>
<feBlend mode="normal" in="SourceGraphic" in2="effect2_dropShadow" result="shape"/>
</filter>
<filter id="filter1_dd" x="54.9085" y="0.740765" width="94.3265" height="86.4096" filterUnits="userSpaceOnUse" color-interpolation-filters="sRGB">
<feFlood flood-opacity="0" result="BackgroundImageFix"/>
<feColorMatrix in="SourceAlpha" type="matrix" values="0 0 0 0 0 0 0 0 0 0 0 0 0 0 0 0 0 0 127 0"/>
<feOffset dy="6.61383"/>
<feGaussianBlur stdDeviation="8.01676"/>
<feColorMatrix type="matrix" values="0 0 0 0 0 0 0 0 0 0 0 0 0 0 0 0 0 0 0.0333774 0"/>
<feBlend mode="normal" in2="BackgroundImageFix" result="effect1_dropShadow"/>
<feColorMatrix in="SourceAlpha" type="matrix" values="0 0 0 0 0 0 0 0 0 0 0 0 0 0 0 0 0 0 127 0"/>
<feOffset dy="13.6232"/>
<feGaussianBlur stdDeviation="16.513"/>
<feColorMatrix type="matrix" values="0 0 0 0 0 0 0 0 0 0 0 0 0 0 0 0 0 0 0.0413989 0"/>
<feBlend mode="normal" in2="effect1_dropShadow" result="effect2_dropShadow"/>
<feBlend mode="normal" in="SourceGraphic" in2="effect2_dropShadow" result="shape"/>
</filter>
</defs>
</svg>
