<svg width="65" height="66" viewBox="0 0 65 66" fill="none" xmlns="http://www.w3.org/2000/svg">
<path d="M32.4315 65.5303C23.8815 65.3949 13.3276 64.5824 7.44943 58.4885C1.3041 52.5301 0.368946 41.832 0.235352 33.1652C0.368946 24.4984 1.17051 13.8002 7.18224 7.84181C13.0604 1.61253 23.6143 0.664594 32.1643 0.529175C40.7143 0.664594 51.2683 1.47711 57.1464 7.57097C63.2917 13.5294 64.2269 24.2275 64.3605 32.7589C64.2269 41.4257 63.4253 52.1238 57.4136 58.0823C51.5354 64.447 40.9815 65.3949 32.4315 65.5303Z" fill="#333366"/>
<mask id="mask0" mask-type="alpha" maskUnits="userSpaceOnUse" x="0" y="0" width="65" height="66">
<path d="M32.4315 65.5303C23.8815 65.3949 13.3276 64.5824 7.44943 58.4885C1.3041 52.5301 0.368946 41.832 0.235352 33.1652C0.368946 24.4984 1.17051 13.8002 7.18224 7.84181C13.0604 1.61253 23.6143 0.664594 32.1643 0.529175C40.7143 0.664594 51.2683 1.47711 57.1464 7.57097C63.2917 13.5294 64.2269 24.2275 64.3605 32.7589C64.2269 41.4257 63.4253 52.1238 57.4136 58.0823C51.5354 64.447 40.9815 65.3949 32.4315 65.5303Z" fill="#F74656"/>
</mask>
<g mask="url(#mask0)">
</g>
<path d="M49.2894 47.9025L55.5349 18.1569H14.6865L8.45245 47.9025H49.2894Z" fill="white"/>
<path d="M15.5359 19.3323C15.5359 19.3323 38.2448 24.0571 38.6926 24.1386C43.9048 25.0696 43.7441 26.0937 43.7441 26.0937C47.395 26.0704 47.8542 26.2217 48.4856 26.7687C50.4029 28.3979 47.2802 33.1926 47.2802 33.1926C46.8324 33.5301 13.0446 46.7504 13.0446 46.7504H48.3938L54.1686 19.2043H15.5359V19.3323Z" fill="#333366"/>
<path d="M41.9761 28.2587C41.4595 28.5148 40.1277 28.6544 39.4963 28.7126C38.8878 28.7591 38.7271 28.829 38.7156 29.0617C38.7041 29.2712 38.8074 29.3876 39.6685 29.3876C41.6547 29.3876 45.2252 28.6311 46.3044 28.9803C46.8784 29.1665 46.4192 30.1906 45.9484 31.5405C45.7648 32.0642 46.1207 32.0293 46.3273 31.7966C46.534 31.5638 47.4639 29.8531 47.5672 28.9686C47.705 27.7234 46.6603 27.5372 45.2022 27.5372H42.8946C42.7683 27.5372 42.6764 27.6187 42.5272 27.8165C42.4124 27.9794 42.3091 28.0842 41.9761 28.2587Z" fill="#333366"/>
<path d="M14.2272 25.57L9.79565 46.7504C9.79565 46.7504 23.3888 39.989 25.0421 39.1278C28.4518 37.3589 33.1589 35.0081 37.5101 33.5068C38.3368 33.2159 41.8958 32.1103 43.9623 31.7379C44.766 31.5866 45.0989 31.4586 45.0989 31.2957C45.0645 30.8651 44.2608 30.8302 42.8946 30.9C38.7271 31.0979 30.748 34.3215 28.4518 35.5434L25.8572 27.3971H42.4354C43.1816 25.2791 32.6194 25.5816 32.2979 25.5584H14.2272V25.57Z" fill="#333366"/>
</svg>
